<mxfile host="drawio.corp.amazon.com" modified="2025-10-08T11:56:02.415Z" agent="Mozilla/5.0 (Macintosh; Intel Mac OS X 10.15; rv:143.0) Gecko/20100101 Firefox/143.0" etag="_wBXgmyQHZ2ObKu3QYpZ" version="21.7.4" type="device">
  <diagram name="Page-1" id="Z_-G-xR1N4z_ih3WbqWy">
    <mxGraphModel dx="4014" dy="2357" grid="0" gridSize="10" guides="1" tooltips="1" connect="1" arrows="1" fold="1" page="0" pageScale="1" pageWidth="850" pageHeight="1100" math="0" shadow="0">
      <root>
        <mxCell id="0" />
        <mxCell id="1" parent="0" />
        <mxCell id="9ioN4O_SSfm939H9G9DM-1" value="&lt;font color=&quot;#000000&quot;&gt;Organization Policy Management Account&lt;br&gt;&lt;/font&gt;" style="sketch=0;outlineConnect=0;gradientColor=none;html=1;whiteSpace=wrap;fontSize=12;fontStyle=0;shape=mxgraph.aws4.group;grIcon=mxgraph.aws4.group_aws_cloud;strokeColor=#000000;fillColor=none;verticalAlign=top;align=left;spacingLeft=30;fontColor=#AAB7B8;dashed=0;" parent="1" vertex="1">
          <mxGeometry x="-1494" y="-880" width="934" height="520" as="geometry" />
        </mxCell>
        <mxCell id="9ioN4O_SSfm939H9G9DM-2" value="" style="rounded=0;whiteSpace=wrap;html=1;fillColor=none;strokeColor=#cc00cc;dashed=1;" parent="1" vertex="1">
          <mxGeometry x="-1224" y="-720" width="624" height="240" as="geometry" />
        </mxCell>
        <mxCell id="9ioN4O_SSfm939H9G9DM-3" value="log&lt;br&gt;summary" style="edgeStyle=orthogonalEdgeStyle;rounded=0;orthogonalLoop=1;jettySize=auto;html=1;fillColor=#dae8fc;strokeColor=#666666;fontColor=#666666;" parent="1" source="9ioN4O_SSfm939H9G9DM-7" target="9ioN4O_SSfm939H9G9DM-15" edge="1">
          <mxGeometry x="-0.194" relative="1" as="geometry">
            <mxPoint x="-1037.27" y="-615" as="sourcePoint" />
            <Array as="points">
              <mxPoint x="-1102.27" y="-800" />
            </Array>
            <mxPoint as="offset" />
          </mxGeometry>
        </mxCell>
        <mxCell id="9ioN4O_SSfm939H9G9DM-4" style="edgeStyle=orthogonalEdgeStyle;rounded=0;orthogonalLoop=1;jettySize=auto;html=1;fillColor=#dae8fc;strokeColor=#666666;fontColor=#666666;" parent="1" source="9ioN4O_SSfm939H9G9DM-11" target="9ioN4O_SSfm939H9G9DM-9" edge="1">
          <mxGeometry relative="1" as="geometry">
            <mxPoint x="-715" y="-585" as="sourcePoint" />
          </mxGeometry>
        </mxCell>
        <mxCell id="9ioN4O_SSfm939H9G9DM-6" value="CodePipeline&lt;br&gt;&lt;span style=&quot;font-weight: normal;&quot;&gt;Org Mgmt Pipeline&lt;/span&gt;" style="sketch=0;points=[[0,0,0],[0.25,0,0],[0.5,0,0],[0.75,0,0],[1,0,0],[0,1,0],[0.25,1,0],[0.5,1,0],[0.75,1,0],[1,1,0],[0,0.25,0],[0,0.5,0],[0,0.75,0],[1,0.25,0],[1,0.5,0],[1,0.75,0]];outlineConnect=0;fontColor=#232F3E;fillColor=#C925D1;strokeColor=#ffffff;dashed=0;verticalLabelPosition=bottom;verticalAlign=top;align=center;html=1;fontSize=12;fontStyle=1;aspect=fixed;shape=mxgraph.aws4.resourceIcon;resIcon=mxgraph.aws4.codepipeline;" parent="1" vertex="1">
          <mxGeometry x="-1254" y="-750" width="50" height="50" as="geometry" />
        </mxCell>
        <mxCell id="9ioN4O_SSfm939H9G9DM-7" value="&lt;b&gt;CodeBuild&lt;/b&gt;&lt;br&gt;Validation &amp;amp; Plan" style="sketch=0;points=[[0,0,0],[0.25,0,0],[0.5,0,0],[0.75,0,0],[1,0,0],[0,1,0],[0.25,1,0],[0.5,1,0],[0.75,1,0],[1,1,0],[0,0.25,0],[0,0.5,0],[0,0.75,0],[1,0.25,0],[1,0.5,0],[1,0.75,0]];outlineConnect=0;fontColor=#232F3E;fillColor=#C925D1;strokeColor=#ffffff;dashed=0;verticalLabelPosition=bottom;verticalAlign=top;align=center;html=1;fontSize=12;fontStyle=0;aspect=fixed;shape=mxgraph.aws4.resourceIcon;resIcon=mxgraph.aws4.codebuild;" parent="1" vertex="1">
          <mxGeometry x="-1122.27" y="-622.5" width="42" height="42" as="geometry" />
        </mxCell>
        <mxCell id="9ioN4O_SSfm939H9G9DM-8" style="edgeStyle=orthogonalEdgeStyle;rounded=0;orthogonalLoop=1;jettySize=auto;html=1;fillColor=#dae8fc;strokeColor=#666666;fontColor=#666666;" parent="1" source="9ioN4O_SSfm939H9G9DM-9" target="9ioN4O_SSfm939H9G9DM-16" edge="1">
          <mxGeometry relative="1" as="geometry" />
        </mxCell>
        <mxCell id="9ioN4O_SSfm939H9G9DM-9" value="&lt;b&gt;CodeBuild&lt;/b&gt;&lt;br&gt;Policy Management" style="sketch=0;points=[[0,0,0],[0.25,0,0],[0.5,0,0],[0.75,0,0],[1,0,0],[0,1,0],[0.25,1,0],[0.5,1,0],[0.75,1,0],[1,1,0],[0,0.25,0],[0,0.5,0],[0,0.75,0],[1,0.25,0],[1,0.5,0],[1,0.75,0]];outlineConnect=0;fontColor=#232F3E;fillColor=#C925D1;strokeColor=#ffffff;dashed=0;verticalLabelPosition=bottom;verticalAlign=top;align=center;html=1;fontSize=12;fontStyle=0;aspect=fixed;shape=mxgraph.aws4.resourceIcon;resIcon=mxgraph.aws4.codebuild;" parent="1" vertex="1">
          <mxGeometry x="-698" y="-622" width="42" height="42" as="geometry" />
        </mxCell>
        <mxCell id="9ioN4O_SSfm939H9G9DM-10" style="edgeStyle=orthogonalEdgeStyle;rounded=0;orthogonalLoop=1;jettySize=auto;html=1;strokeColor=#666666;fillColor=#dae8fc;fontColor=#666666;" parent="1" source="9ioN4O_SSfm939H9G9DM-11" target="9ioN4O_SSfm939H9G9DM-29" edge="1">
          <mxGeometry relative="1" as="geometry" />
        </mxCell>
        <mxCell id="9ioN4O_SSfm939H9G9DM-11" value="&lt;b&gt;Approval&lt;/b&gt;" style="sketch=0;pointerEvents=1;shadow=0;dashed=0;html=1;strokeColor=none;fillColor=#505050;labelPosition=center;verticalLabelPosition=bottom;verticalAlign=top;outlineConnect=0;align=center;shape=mxgraph.office.users.approver;" parent="1" vertex="1">
          <mxGeometry x="-888" y="-616" width="32.18" height="30" as="geometry" />
        </mxCell>
        <mxCell id="9ioN4O_SSfm939H9G9DM-12" value="&lt;h1&gt;Organization Policy Management Pipeline&lt;/h1&gt;" style="text;html=1;align=center;verticalAlign=middle;resizable=0;points=[];autosize=1;strokeColor=none;fillColor=none;" parent="1" vertex="1">
          <mxGeometry x="-1494" y="-950" width="500" height="70" as="geometry" />
        </mxCell>
        <mxCell id="9ioN4O_SSfm939H9G9DM-14" style="edgeStyle=orthogonalEdgeStyle;rounded=0;orthogonalLoop=1;jettySize=auto;html=1;fillColor=#dae8fc;strokeColor=#666666;fontColor=#666666;" parent="1" source="9ioN4O_SSfm939H9G9DM-7" target="9ioN4O_SSfm939H9G9DM-11" edge="1">
          <mxGeometry relative="1" as="geometry" />
        </mxCell>
        <mxCell id="9ioN4O_SSfm939H9G9DM-15" value="" style="shape=image;verticalLabelPosition=bottom;labelBackgroundColor=default;verticalAlign=top;aspect=fixed;imageAspect=0;image=data:image/png,iVBORw0KGgoAAAANSUhEUgAAAMQAAADECAYAAADApo5rAAAABGdBTUEAALGPC/xhBQAAACBjSFJNAAB6JgAAgIQAAPoAAACA6AAAdTAAAOpgAAA6mAAAF3CculE8AAAABmJLR0QA/wD/AP+gvaeTAAAACXBIWXMAAA7DAAAOwwHHb6hkAABb00lEQVR42t29d7xdR3ku/Kx9io66LNmyVa1iWZYl23Lv3caAbbAhQAjBwIUEJ9w0IOUj5ZqbLxBy8yW5KaRgU1KBYCAxuOJu3ItkybK61WVZVu/SOXu+P/Zea73lmVlrHyt1fj/p7Jk1a+bt7ztlzWSn/fHnQpZlkMnm0c4XpVnrv0z8NlXTZVn+K4P/k0XzZSu6jMGb6RdKeA0ineFg4a+Jg6Wf7sTjYOG3ZRR+1bvCKQMQBA6ZJ05tHjC+MR54njAeeHjZc08ugoMDSZbVkalWJw3USSG0SWqK8//E8xBcDbAX49VCRd63G4KpEFi/ASGFg3wWAduClEQ1+N/qnVQfIQ5rYO+aB0E9INWDJFGcRywf2pTsOAUjg7T9UHJJ4JPBs9ThEHiztrSgSOA1G63GvYA5IZPoCCXQgiGUQryviW8lJRQIqXaU0Bn4IjA7HJwkZiYv4BH5AP88qHwQDGbGQlMkGKXOy4KikWFSMDi16Z2pRoIUIa0tDEcDr6V3CWYwxYHgEJRUWpnJ86pnk8/fT7KjwC/UU2KJg8xLWK0MhbK/RglboEhJ4IO1XFEGWMsbqEaHKiXwskotL4W3aMLgQDyFZ0gwjs8yBCVOSfjlU+bpCD9Tih6kePh3RSPEm3j4YXmiDJOSrhKHOPlLGhO58TxIEcIaJoaDlSutTRaHoNrm9A0INUMmT0dDFcsAAQ5xdZKcGVh7HgEuyKHSU1SGMjQGcegR+BkxIv0VOAXOkJAUD6cUxN0gJq5O0QOoYttXrdcvCrQVENaXox/HgfpRjmdUhlgZg8B4xBC40AFohBBS8lAg4kXRWCVUMC1i14JvSAkQsxIJLfPEJ3ltyeEFysDrFD3qKYRFCpLNBN6EIrGQ1fEvMCsb4jyhKcR/OatqLIkNb1jT8oEdZAfTgDWskWY8DyI4Oh4bT2FbbDfYiDVmGeStUvAzIRGlqLSyqkvvqiloVbx27xELmrJaVeFN0jMQFlKrWKurSIcGKyagVMhKgQpG8uLhE0OVmUgLWSJ00j15Qql82nAqnAz8cb54pQ6hHTIVoUciPGm97y2vp2E0QheD7RANPbiYRJAzyOiBfPBu2sJrGSkGeZZBxRiAzqhxz5GE17xQDlIVgdOeg1loGX9bHIKuE+VRjC8CnGCe5/BVGhILGzO28HKl0BMtBc9QgxdRfAm/wCED0EhGOpF43DIgRBigNdCbVGallKVSik7tHKGlV1pT4HBySuxmqKShsMDmj7WV4nwySmvpbXAyos1xsorOyoylVWoYgqlDSCR5GAh8CpwaSkzgZTJk6R0kfFIxkm7d+jNvXIOo06AIxYif5xkDDDh+NgrxfAUy8DwzDDFiWmdKNjVQTYGZrONcQLK4oBQVMu3tnKKTvkMKhwQyNIRlxipFGaVpwXmLOoapLrxpHEqlNyA5Y+YMlwyZUq6Pr0uwvBUAb2lD+bMELOi8pq9nOx+UphkQi19lRllk4bq1EIt41uBg6SA9R6QzBECvLcif1ptwCYiRX3g2IgxBdUQV1VDAWLyg+GxRy2w5QYIrScRQGUZombWeTTyTcmXFxmoMkivVFSoamOu2Gud+EoQjCBm2VDEcgFuOr/RMbl0lEByEmgimMEvGVoCVLXImSdLM23xHciJAMQ+ugOKMaD2i661CmgxD2dqLxsHySLbP4XUKZUJWv8gqeqshQ7pxLo/5/+XC3CBCj+I9y6SYlnty+faslhMBYvkCXsMAN3AlNGKFyZCPFssQx+BA3lNKIFB14dNgeADLdFPLKoXFIatoK7D25UNN847XiiIpvfWGtWeVRD+3xjsAaPhBXrWbc6unlSvEot+S80WehUsKIdKQEiqnBHFah4hVrTN7o7029xyUCYzyqrbrzAgt8wKe3gG0UxdulACWVl96hcQkFKNoAa+LQAz9HA6WB6abQHBIewrhj6s8h/pT9tyoAp5pOEsxpTA+hxPTlbmGKhACfUfB1qmlDa5Ew1vtQNQ7icVR7rk8geOwCtC07oVaFBfoktYjhsr2V8FHZsnrzgByilJCppuLRhtlhQZDkHmKOhsAY4pjrWjUdVe48thAW2lMgQPxFDU8g+82sXbBPIWB1zYe3Pseh2DyRS9s4qBSqPi8v/dsnCd1La2lYUFv573rwGt5Yj2F9wzMexfNm7Uj5RUMzxvCcXo8zaR6HUvL5pwtwbyQRVwfM6kSoYQSFztRK4TKpaopWaoUgilJpYi8r8ITo/JUqCyJWfihJTvp/Yq83emrYY4ZJhf2Bvqa6MrY9+Dlhm1qtHzSoMYV3Xk7q+hChhreh1pnVMOdmxRSVipK8PpWCixvhCrA0aU+vAAqrZQFI9GRFhj6okbBKrpTAgIvDTdsvkopPBUKcDrCIZg+iRGqmuwAgd/JUaBvBdYKqcrGeQ2NhtWwCJBkm0RlslYKGemGr0dr4LmVKsEOKd4K6pqyqpmPoGxogs58XSVTDVtXbeGJUSEBX4TmHgfdDftoR0cZwuuaBRPq/fIyGaYYgKPiRRrks5gxoE1p0I9jSix50mBte60noYfDxSuJ3+Blwxvj9qSbI6aL6V3UiylieFfOVC8288Fob1vSfXorqq2sQ43T1mbYZIfypsERqWrgyratxKgaG9cxZJiuuJkFKzMW3pTRkWSxNLN8ScU6xjA1Sh4Si2TmxKlVTa6mxkjlTZFHiFsp1YYVcDbvlwg1WNOVK/KUHnSTt0GX4+BWuCMaWBpeYbFj1K302N6UBkS8s3IX7HsKOByo0ivWSAHNKA/UHqtK781kqOSLUpIAL1cCtkZswwf1AjnZvAFUyCjGtRFK8h2svYiWMytLZE15AStQNn5NKUUwDIoywHzeSYWsfN02xwZ5FkFrqAoxZWMg663t6i/1bG0lU4puJwskCQRshC8F1NazKRzyXatpJXafpJJ1Cydnmh2uzI6JQpCfkFpMgpypYVyVtAyOAQQj14BWsLhb0xotXbXxNh4wTlwCiZvN6XRF2AoZrRgzAxb3YMieEVyIhFZ5uxB/PW8jQTbn6eK/tOVlQspx4DBF81WD6rTLph03ZBlDy1pa1ahoN6tyffCWN3+zbLJQL0fFCvth6EMwIau7LtxzH3V5hnlXzj78926ZWvxgG/eeIlc0iQOxD86fljzRZc7K0kFqAgdqmCI0V8UBtFiVGW8Sgv/SzuIZnVIOxXNBQd9x0WXrQbkwJx4GUZk2AFOnAIGLbVIpmOtzdLduuY1k8AyJLbxYnPScuxCWThcgAyJCpRkk0FXI0phcE8i2qN83hsl/6EU5Ytqzm+fiOHhgDPMcMyUPtCENpO2gmUjpz/p3IaAFQ5oMYQwt3xp0nt+ywXtj0qFgiEn20Cq3cBRp3SNU8C+SIubH1lc7PEO0mVTywsasFGd6HIkIvRVaPlBJQNLuqs5erVSfmlpUSohhijduW9Qv0Jig1q4IzgP9KL1O0YioG+2LeQ470C4ar1AS9UoOfLBciCuFpVXVjgANf9yqMpJRHILpJAhaMHhtjENwUO8oEI1VNTzICBEqZ5pkeCrKtIGPCbzs33g/CSURJS5DuumyT+MrK3dFlGXSE1DDHck3QCprHtQwl45pnvHc9TGrlVAKQ+ySglwbHUNCBTZu6sc+rlAUHREIK6XDM79FImL7raJXeAqXqYI/4gVYI9GoKR2neENK4CegxsvIOkr1e9xbs7z6HqJyeb4wrpbzHOl6H50nyqIG1vffIlasZW160lZKWDyEaktbhVUNq6QoSJCXEFFPoTDUhqn6U04ClFVq5XnKd2KqHFuskzS3sKoWE96bkZoa2lCH8Na4FnuZAtTmAqk1wRBbkcC46Rwph2SKISS+dYM8Q3b/SMMrywJhUOFGg28PcAxgc/r2Odv7xISKWaU4DsIQ6cY1MZxiM9eYwCHkOBi+KBxaObvWUpCLCFmBg2pbG9ekDAXTVcE+ruhO/chkR3TrTbuThgOU+dxEMX1OAEvlc1BNgWMQHRgARqC4pdX0k2u83NsQ6qZxIDLIGw38edSqRtpXNYPLIVo3gQPhgYchMU5KpWB5QNCOevi8ZBDeOhgZlrpGDFUjhpcLn2BkQjVO/Czbt5JiRsT1KSJkFhmBUBCVYuFHMLBa7+fcuREyB161t3NnV8EIgaQg4YEltvMciuxB9GHx4YYIFF5ler23a2/MlDhoq55QSUlf9UQDW1JF4GOa9pM55Yq8Lq6a1cx7C+Vu17TuVZlP70CoEAxmNViGHybUcO/WsVhR6Yy8K4q6Gg1MGzMOl06dhVOOPQFDe3prjjHq7JKV/TFPl4Qy4h8IfevAG6qKOQ+S+mCQD/qHjwZgt5GINipmBEHOlHTkpd4Z6EYo38/7ybJQNFwuFoYi33rUjieDvImijWCx7tBuXP0JrXeKPoNep2grgC1rvR+QhQzIcnJm5ZRjBgVfC4csilPrzowSMAt2iVarzoljxuFXLrgW502ejq6sNfTavHcnfrxuJR5fuwILt6zH4YGBAqdW+5mCv/jZfh7afWdtehahXImOkpECh5C14RM8yEQ3JaqCZrKtkr65oZIXu5Q4ZKI9AVSRb1NHyIQSpgwIbUJmURnNlULilKEUkxJnuRkiE6vYIQR9iU7Rt1gDy6MDkhfijezkL34mFLC6m4E0V9TNOvYWHXmbjMtrith8K+sp9pZuBqpxk1H8ZqMy09fdjZtOOQufOPtSjBoylLJ0IDTx5r69eHz9Cjy6ZhleffN17Dt8yOOQKWgVUIPCIcKD2nypRXMDc+QmI8GOKLz0tqMkDxh93qIcRWQmL8lO/uJngsejihk1GJJlyjJmDtN6DKmDjGZIcYFUQgHqMWTK6HH4tUvejnMnTUcjbuJUCiFgw54deHbDa3hozTK8vGUDBkJTImRAZwphBawOvBn8nxqGqQZfBqfUHocs97cpnDpV6jpy5Qypv7Isf0crhOdCrbu9LIkZk5gABAY8RajKSnGGUKvrK+r74wD0dnXhvfPOwc+efTlG9A7BW0lv7NuDJ9atwMNrl+HVrZux/8hhAp8RnlBmOlNiK7ieidRLBPiyFD8sDyhP4vRmODCcxFNvbBPw1fMSggNtmmdZhuzkL3xajGA8AmkrZZnGGJJ5IJy8V2h5xCqx8IkRrQ68uVJMP+ZYfObi6zryCnXSQLOJLft24+mNq/Hga0uxfNuWlnI4UPxFkEZfK3HwZCeW1ypJikdWgGJ8oYYoq4BfAxuF15URxUb9fAwvqhCVbg2o7Sk4wY8CQoxJtVw3gx/oanThA6edi4+ffRlGR8YKRysFAJv27MTTG1bjkbXLseiNDTgyMOAFyvDF4dRhCOhvQ63ggVOMCtiKJp32WdBrwDsIGTJEGcy4tFSIKPHjCHUWPhlg6zCk1qC6jpUSZYQhJ409Hp+++G04d9J0bkn+DVMzNLHtwD48tnYFHl23HEvffB37jhyu8H4KkfSVwVaA3J8qpYDiWyr+rkXvCA9S+ZiSMPgGFVIJJc5mfeFXggWeCZjGIx4LMgbFGVIjnBrUrEFCqUW+p6sLPzH3HHzi7MswZugw/EenZgjYtGcnntm4Bo+sXYrFWzcpzyHQ64zmlqwRAcqyDL2NLozoHYLhPUPQ32xi1+EDODwwYCYGKkLYlGcmfOlsNq0sszhafDR4CaUQ8tdWiDyLpADFGFLpulPAx9xeJwM9yuCQxOmkscfjs5e8HedOno5OUggBj61djh+vXYmLpp6EsyeeiJFD+jpqo27auGcnvrbgx7hv9ZL2AlTcEFUOSiM8AYBj+obh4skzcenkk3DKuONVyNjfbGLdnu1Y+MYGPLR2OZZu34Jmex3DsIiO+1SdxBRzGqcS5trRRkWewQsA2azfaytEBFgWoxePO9Fy+ycxv+yAjZSxvGaAwSED+rp7cfOpZ+HW867sWJDf3L8Xf/3co7h7xUIcGWii0cgwbuhwnDNpOq6ePgennzAZo/uGeuv5FtLhgX586cn7cN/qVySmNmoCEyptV6whAoZ29+KdJ83DB089B+OGjqiE+vDAAF7csh5fXfQUVu3c6nlgvbMoc7AZHsWUoM7skzJ/LhpKh4TW25UKwV6wyASkEazhOZJa7tYukFYU67oTIV8G4MQx4/Drl1+P8yfP6GisEAA8s34V/uCJe7F+9/ZoPH7c8JE4a8KJuHrGqThv0nQM7emp3Ucqbdy9Ax/6/h3obzYTMXlV/K0zxw0dgd+48DqcM+HEjuHZd+Qw/nLB47j3tSV+pwFihslOM1sPXicCqQq5HcJ+jFExOZOd9Hu/HOpMnXlgLUAR4G1Z5p5WIFTh6todRIkPoK+nB++dew5+7oKrMbynF52m7736In7/8bvRbDaT8Ob5LMswckgfLpoyE1fPmIPTjp+MY/re2hjlfd/5K2zeu9vRW9NX4C7rtOUvp9uEkaPxB1fejKmjxg4anoHQxDcWP4N/fPV5v1XF8qiQfy5XGof42otQoaii11IKT7QC5m4XCLY3pxSd0+flT8DJa7lnqf1U7NLx+25cB7atgI5CkHz3ZZv40445Fv/PFTfgnLewrrB13x4MNJslFHqLlsuHELD70AHcu3Ix7lv1Co4bNhLnTDwRV047BWdNnIrhvX0dB1VDuq23URuWFAkdbcWGxpG9ffiti97xlpQBALqyBj4893xs2b8HD65dBvblQQs63X9UmGyZIW6wxLa/1H4t3W6x3yrTT5l36wbMRi7Tnt6M1kaRAJtvPMs3c7nNckWeKIXiW3szGgQMbgNg0BoeQrvJsqyn0YX3n3Yubj3/qqMz6I1uNrMb7IQgtGF/Y99u3LNiEe5ZuRjH9A3DBVNm4rITZ+GcCdPqw5ZvRhMCliketesJPmREgD56+oWYd9zEt04PAD2NBj41/1IseXMzNu3dpTdlajIpGgowC0mVGxpDW/qzmMURDZXth2LTY9aWCUmk1iZHkY98DtwtclqoAhCYWuW4ml2aQeUBqyjaU1gc1fZSJ2Q5sG6Hpt0lm7W8yfSxx+FzV9yIsydNO6qrzZ6CoIqd01MzpEWaHQf3454Vi3DfysUY0zcM50+ejitOnI3Lp82u2R9nRLnzVzw2O39njD4W75p1xlElwaghQ/HhuefjD555APknq1nSWNmdygSHdo1iN7AzvhpR6ynsBuw8Y8nXAi+fU2oVusOO3aFP7gMXo1npDfD0oxf7kY7oTDcL9rKoYz7I6coa+ND8C/G1n/gEzp18dLdeqL37Bc7Bwx9Uzmy7L583Q8D2A/tw74pX8Os/urNO75U8CPyNIt00+wz0dnUdRZq00sWTZmDSyNFlz5GvCSXZPLztsrgowctIyAXKi1KEDlVf/nTT7xHcOFZE8to/+zos1ss9RbDexsaH7fAMGdXoEmENcwgBM8eNx29d+W6cPXlaR8xshoDDA/3o607MCAlKq5DQ0KxFERLPSk/X5l5W4JhmkGWl5IEOzgSoxKqOGjIEF0+eWdED8Pj6FfjWqy9gxfY3MKK3D5dPnYVb5p2fnBQY3tOLiybOwLeXvajaUjJET+HjI0QdbZTRRx7x5E3p9uGiiyhPlMDlRS2ZauSZqAzkGfoppD39zud9q3mMa8ojWs0OI7Zpxtjx+PJNH+lYGbbv34vfffhf8fT61R29VwEyfxhIA4PoNHrsindHKk0edQyOHTYy2foPVy7C7/74HryydRMODwxg+4F9+N7yBfjNx/4Vuw4dSL47f/xkA1QcVhpUmAcVsQI9tZETxucD4oaoPIbGnUlkAHFWWnfgeGERJP1zVD0y9hSGAt52/tYLrsKEkWPQSXp49av46Hdux/eXvIAjA/2V9dlBBjofjNxbV+4Dmo6OuCkaykyeMcKf+zR99LjkzNbuQwdx+4If43BBixK2JW9uxl0rFyXBmz5mnD8yJhC5AjsLN3JwAcPR8MDSu+RBMMXk2M8i5MplNOgxBDuc2ALPT76QH8mLvEEwdrxKgYDIe89gY/ayziXTZqFu2rpvDz7/4Pfxq/d8G+t3ba9pqNsQWatUhrC6zOCkyMB420myAqSp42L0/IiYqnWQ5du3YMfBfQT+1q9nNq1Jvj+mvd2DKTq7L86SQZFCRCQuAiGelx7GYPKiBd5nO3Xz2M6+wMb/fvZJ59vxH/JQ0EWVZWX5jou/gfzbXcDHgwEBI3qrpy5DCHh87XL84WP3YN3ObXqaucNkZzqK+DaKVmjj4KP+OiEhZYqetInQt6xSNcHQ32zqFwxP+5sDyfcbWSP5XI1VrTwIHKykKRnK67jvtIOYZi5fVVOyeqEIcvGu1X6rrLvImEFqCXwo5obVB9tZKQwSQQ28pW+7juwukDpijtnymiloVXpz3x58+ekH8b1XXjCjk3ptFFYqNpng5vky8Sc4HKSi1030NBLXbXzyY9ehg8n2Z40dj2E9veVHSyETEVrA6cdNSr6/+9BBpUh2OlNQRhE1OMPEcEjRKZD2Sx64dQlpSdRUf+tJVK35XQ4eDuaANIh2DMHzOvyoYTJrHJOZp1+751u4c/HzaNqBTqirEtZ1w7tujS2sq7a1bXv1YCAOn56PC/MDWLtrW7LtsUOH4QNzzhGepHx54ojRuHn2/OT7a3en2ydE81jZ4VDxI3LquI3gk+GT7dUQqN1LcVBZnbsR+GHF8sx90xVTAjOmsMRX8V+BkwvWO5KlnQf3i7YT8W0ySRzKMQUB3DFOPY+8UxuEyGyf4glZO1qzcxt25HQgKUOGn553Pn72zEsxbuhwAEBXluHcE07EF6+4CScMH5UE7eU3NlI+sbO4qo/mF3IlcCgeiTqGOLoO44sAJ5jnABlDuHWJzDu0nIBFq3bvE/KYuf0T0OGGDLHYEMaMQ0rXR4LbUMPGB9+2dt+h1vuB9O/iWRkCZiLfxifLaVCAMhgcDNFsCNuuU6wQh5ZReG7TGrxtxqnRLrobDXzw1HPxntlnYvuBfRja3YtRQ/oqxx8HB/rxxMZVHie5HccGRnZMYcMnWyZCwILmBQ8gDkvgchUKvre3cMDA14a3dbZrSiCYRltL2+6AhU91uKxmnpwZNfbWuNU6C1vUK4Q6bybQCXUqiTJjpTQ5O4ydELO0vp0g6n9v2QIMyMFzJA3p6saEEaMxpm9ordX+l15fh9U73vR8sdFF8BLig5Y4DkiLqXuDhVSRTNGIONu1Anh35mc9V22oVKAcD59Ucw74cttHZ0JE76eoLYgShzKeVdPMAUaxZbTg2d7JGCh/p84CqlIwE38v2rIBD65Z2hHdqtKBI0fw1ZefRDP/xNTpKA8gYZ6V9DV1xXpYMBXL8KnEkwl9oA1D8SCnmR9UK1pqgN3MDuWpPQae6b0VEy1AFGYFfISgnaaQK3qtqnxsYJSWK7Eg1lvFwem0P5xY8UVYnwDgL194FGt21RgA10jNEPD1RU9h5Y6tYGJLwa86IDqvQxb0WBdyF4ZGV2iLEUi2dpT/aeiGiNhKQaTLzUzLuZBpDWZCFXlOgI/2D/5alCG1U33vYhfvHE7RfHX3lLKR8C0QGm/dtwe3PXoXtu3fO0g6lM39y/KF+M6yF4tdA6Xn1MZrUNchAES9ItdjsVAoq2grgKpvw7ruqL0USmGtKreyLL71M1I6rIgLDBPHQYt2CJ0rho6adPgUCZfki4E0FMjTwcJfd/YmAFix/Q388v3fxvLtWwZFv8MD/bhjwRP48xcfQX+zSYXUMo17AVs9cWy9CbFLIovwSXiFxCQUotIUYusQJu7jVskywHsKf4sO7czAGKLPleJ0ZFwHezWW7YMhEStzxKBrL3VxaFXs0NIGV1LA+9rON/Hp+7+Nf1z8jD5BMJGaIWDZ9i34jUe+j79f/Cz6B5q837rww8sMC/fqGkMbgTC+Me8t63XnQtb6Si0U06VyG3befNXqMP/yzrwZWlNpQHQmttWbms4MRaUgy/w+9Ur47Lbxei8K+GBwEjFsuW1Z5M1+jpKsJvitBwbdVdCik9xFgDgPClIG7Dx4AF9+/lH8y/KX8ZHTL8Q7T5oX7XvXwQP4g6fvx9ObXsOR9jYO/4lxyaA2tpJhRQguv5Mv9stVfhEZ+aBI8IR+zJZHUKmPjET94ou5ch85zPwsihbpcrxjSGhPq+v5YzYDrwnQQhDBA99qv9QehVDd+DvHizDg7178MR5Ysdi/166zetsbvj0hZKcfPwUfmn9hiV/RdOvHlr278cdP3qeIW6yr1FmDKMWJCpWv2l4xSe0dKr4dyLBx9w48tWF1UiF2HNqPx9evKNsQ76NkjeCnUHlmXNV+tDZOVq6yQoq0UhAelPkWIFkE55hhyuWs2yLDgK3DMr95ywuQ3ewnN064uzbIoMgsZykevJW0cPM6vPy6b8ldOE8YAmQYP2IUrj1pbrT91du34o+iVqkmhSsUn30wbzdh5p/YSoJquqb7b/GFwQ/PkzwcjHykwyKOyo/V5GKj4AHz1ppw5SJxi69xHIortZyxzV+OEN+GGxlZbnbjmMp1ADuw1vFwiFTtNOUWya29VL5oB31ZRyCw/Vx1B9XBVQueBmzGz73SwfVeJultelZmLDwauNTwsSbRot1kpM1C3AzhdAjrm3ffVDOEA3vTwc1WtANVgiC60KFA+YOSMviyusx0K6fk3UCUxO3cdzTpTCvpzHX9tzXDidDxK4N9Z2lKRHuvWP0lLdqM4kFws02xReEUEd06l+CL57EnhjRUDTdlyLQeQgCswFRt3rIIWYHXmuCAt9s6YjM1qZT3T7uyOLmXGXQJTxaHguRrjoHUWx4SOHmp8MQW9NowcBzYDlPWWV4s4WPhGlPsJCyFTPFdsdpdBGqn83wjqkkQT4IpY1JjS1JaLJSibC/Tebs6KVuKuOU6yX5KSJxOqUBBEzTK9w4Fqo6VZa8qgTKWNqkUgXnw0scMJrHFZDulybxQUC8IUxfSMlSuf0kF49P6mcoLRWFKIL1JMCGTUoBIbKZbE7DU2jEaV7tU+BFFppNEYyT5qGKrO+001BYpHc9KV11XqUMiJ0JCotiuXg360t6jFVmIogVeTF3GsSD7u9iRNlEitNtIUtTIof3VkMCXWi1cS0FEbRKLEKqdMgI8G1cwjfaew38kr9+xrro6MRyse88I05LfhNSP2jqqF32XrO66cM/OzrFBqfF8dZWSWnwbHhFPkVvz4mFwrBStajhaPCFyVWbITgkhtSasYXIl4e3WjZjP7nSmRFidRhcgv3nOmzEYlMP76HyyX+hpP/Kf3pqmO0stnNh0ID/piOOgzpGs2y9ZVwk11yF+Yu452HlgX/5ytF6dU81Zneljjq0BfylL5XoL+8bZv+eWIgP8/Kxcx2g3GP/Q1wianJItuqwQpsw3181W8lx9pRcZaawUEDq/DBt+sYWjTNOILmO3CRvQyefIKBWZ6KrqMwfPz+mr1eEC54jyRPkn6NshDu+be04nCP8bJS+E0Xn/dlWrAO2nkHKWV8hMmfrmKrIiL+sx++3FlS8S5+wpB9XUzQnwIuGT8UgloTredxN0/MfCKVG9kWWYP2kq/uzmWyrZeNu178UVM+egt9Fd4qRctT+zx/bH4B/a3YsbTpmPn7/g6koYBGfr1f3PmCrGPIEwz44pyqeaB8WKdidrQ8XEgJYjBaGdYSxywQlvQLF1o9Tq+GoqvIlVHqhc4WahTY6gXYlkGmzW9NXqZCPLcMr4ifjkhVfh8plz0kdQttOZk07En777w3hx4xp89blH8dTalfrYFcW0MnySdkQyqK+nB9ecNBcfPvNinHLchBphSqA4liu//zWSdHJFkGu9N0yMEYoAAKaY1YbLOKdUV4bgGolGTeKHG0O4fVWm6VJmvJIU36uKI8cLoYqEI6Fwu5Hl+Lz/DDjthCn4mQuvxhUz56Cnw0N7uxoNnDtlBs6ePB0LNq3FV555uFQMRSCpFIDcN9TX3YNrZs3Dx865FLPGHV+776awUvbY+k43KP5HJYcDDc0jhlXSVuBM6e3KQnvMEpeh2GCzPIKm/V8hl7nISbPXeomMIdoDvUwcSZ/3KZjoBt6tVsuBNjJqCeIIWYfUQqCr0cDpE6fgExdchUunzyYXh3SWGlmGsyZNw5/ddAte3rwOX3nmETyzbhUOt3dw5myX+7mG9fbiyplz8PFzL8eMseM7PlV8856dxaDBWqX/KlHU63t3aRyEEGp545MHKZmhMhSZ0LH3O6gxRRsIu/epiC8ie6EKJQbk/RDQloqNNk2KzB/QelXhUyCjzHkTpuAT51+Jq0+ei96ubhzN1N3owlmTpuMvbj4Rz294DV97/nE8/toyVacra+Cdp5yBW866GLPHTxyUIW+GgLuXvVwwqEWwSNz5nzQ1Q8B9q/JLH9lkRzQG0YlMbPjhNQmhEpTyEyA2xoLrMLSVNCM4dAubmJgtlZ4j19428EqjIaZgza5ZsmWZbR3PGg3Mn3QifuaCq3DVrLn/theeoHUE43lTZuLcKTPx0sY1uOO5R/HSprW4cuap+Pi5l2HG2PGDbnug2cTfL3hSby23s4IF1/5zpv5mE/+0+Fk8vGZZCar15lkpQzB2zcpQfiKg8hxtuhQD60KuytukgpQjtxVadFp4CukJ2CcJflZTDKoFXxJ90UQHNeIhuxuBNNjVaODU4yfj5y+5FpfMmF1rsMzBifeRShmAsyZNw+kTpuDNfXsxfsSoQStjf7OJRa+vxx3PP4an1q1sHf2SM8SEGnV7eGr9Kuw7fCiNADqYBs7kT8a5gG379+Lx9Sux4PX1xcXtcq0oCr8daBMZSnuAxKgaEaUAqjsgfdhq6nuIMhaMua9QajTyeoYyak1Cew6FkPAWw3uH4Levew/eNffsjgfLMm3ctQN/9/wT2HVwPz523mWYddyEjoOR7kYXThC34XSSmiFgweZ1uOO5R/HUupXFQFQSsZyNi3tmlv7ox/fhtR1bFV9KEpYtZJl+XvwZxD3gbp1Fhd6hjU/bKwB+nUWDpmfVisVRe0efntjUNJNtkSvWDJ7qC85CuItGkbszqb/dpfsuJ4RDflGvcWvxmYNMj4vMoNrQSqWurIHfftt78N7Tz6shFjyt2/Em/uHFJ/HdRc9hT/tQ33uXLcQ1J5+Gj517GeaMn9ixx+gk9TebWLBpLb76/GN4dsNqHBkoT8qOXhYpCFP70OXktHh6Nod/uhkXsryxAH/ItRqUOqEKZXiDrICluHlJ4hC5aUniEDqYbSrwTN1x58YxItyDDZmiPiwynWbVObFO4WeKW+SaNHosbpx3Vi2BsOn13bvwty88hjtffg47D+xXFunAkSP4wZIX8eCKxbh21jz8zAVXYeaxxx/V4WsIAS9tXouvPf84nly7olAEO1lgB318Lb/j3qM8ccfAc4a4afIcXntVgP/yrvUzTctBDrSrwjG/MAHUUGzdmJ+izbPdsoTPzxoGwNsiVUe5QhJOGQ2fPf6EjmeQNuzajr97/nF8a8HTOHDksCGQwDUA+w8fxr8ueRF3L12It59yOj567mU4dfykt+QxmiHghQ2v4esvtGem7Kebqe+DCyuaJeXEpfy9wnsLHtgY3XprcxOqZmzmBooZ2VqjPUMZLhUD4czuVTJ1wOC1SiznokWZnG7NcZD6lnVAxxwfMkWL4uJ25FNRROCDpp2Gr1QApoDyI3S1mU7U7q45ZggI2Lx7J77+7GP418UvYPuBvYLUoSCgHrjmDG9d+PGDJS/hoRVLcMVJc/Cz51+FWccdX3nRh0z9zQG8vHkDvvLsw3h2/ery+qk64YdDyJ4kUYOLBSViM4JkAAqrFP5ebSnUUXCYs5FTSoUCtNpWVdV4ogyF+IkqzsQSw2GUJDDjq+GlGzddOBVMyGSVgCoJ4LTcLroUTWVKKXQ8WyJUlTbv3olvPPco7lz4HHaJI93diddOQIQItPP7jxzC3a8uxEMrluCak+fiE+ddidnjJyT7DyHgpU1rcfuzj+DJtSvR3xwo/aeYQUsOj6kFE7t86yTj/TKjTS0hE/SXo2o62WHHedpTME/nDzIou4grTdtTGO/kccjcwDv/Y+EtlBilYkPQ0o05IlG9Bbvbj+qtPxKDDuPqnFIoGZFKQC5izxlQYR3X79yGd93+h9jbHixXLtnTUxi8oh/sP4wfLFmAB5Yvxl+856O4eNrJURj+ccFT+INHfoiB5kBUqOoIED+3qmRmVSrR1QPV5NVSiAlQm6uOJ1ASU6kUdAXensVVlpUiVvJE4+CnCBwrYSKOFA/sOIl9fiA8XXcN26aJa+NVi4aNB9VTN8SvFIVD/UcKZeAMYZ7CKgkDNWu331/MTMXSrgP7S6+gIzFvGSsEim99r0F3xKvT/WckhOI8sKNkEnZVKnYZE/U0utDX04MxfcOQAdhz+CD2HTmsj7wkfFIhX4gJvGwhPpKtyPpQSeDUXWqvHfS1OnWb0QpJYFaKKIWZxZDTCnXsYmtHcLXrLhRbWV05MRAP/+omSvzUzE0Oi12RtzjUcxAlBCTUcPSFEDJ1X5wGm1KFjIkYLLnM9DS6cOaEqXjbjFNx+vGTMXHkmGJRM4SArfv34pWtm/DQmqV4ZtNr2H/kiIs2IoApJWazUcVPleezZ5W7ZIsxhIj3C72Jhh/Wy1jXZ5Wi5FtsYF1LFIxQ+UUXWF0FTCyaAy1CW1G5CgDZVEnwkmElAwqhqjH7VHu2K2jO24FqaEu8EjIl8ICeAQTcvL/CoR2Dm810BQ/az+afMAU/d84VmHPsBHQ3/ARFlmUYP3wkxg+fjctPPBnrd+/AVxc8gUfXrRAr+Na4lvBmRCkg4RVjiEx4OjZWpTIkngP5DULtl52lyr2FyUcq0nyQeVmtxvihWkjIeTyRb54LCylPWajbTQoH2X7QdeqcMVT/3Ivgfge45nUdx6oQbVbJgaWpI3tAd9bALadfiD++7gM4bfwkqgw2NbIMJ44ei/912Y34tYuuw7Ce3tTZErx7woayLJR4y0esDVlHdNJgBAiuschZDSFFP8uQQIorqEEJxOD1QuaV2MLqiVejd/9LKLZSCt89xyEQnBK9B0tP01GI8CT3IPojf00D1jTDqbvRwKcvehs+efZlGDKIXciNLMM7Z87D7191M4b3DjFUlUfZG5mxBke848skDlZJggtQ8iNuGkUFQ0F2CLl1EFHemAelzDArW4OCVXWini0knquqlR0oprlmQ+23B50szSQzQp2XDBwRHlYpRQbgg6edj5tmz3/L22HOPGEqPnP+Nejt6uL6HQUsUFFKk5nIODFEjbyuO/VMWT14IROVCu2V4UjEM/h8dbJnDkUvDIngXzLUHnFTSUXViPN+EXoVFinilg2BOkjKrpvSvElhZW2/igcSB5/nJwQGzBs/CR8/85Kjtjfs2ulz8I6Z85ycSRy46Yl7hYLfQZeFwNrRSDbMG256ykuWIL4xr/ZXWimCxKky1apnPVvgVtHjUB8CHrsK5FLxbIJBtXonoYR8YGcmNf1DouGIfTBC1cga+OQ5lw96az5LWZbhY2dciNFD+rh3KkBghjRIUVKhURR1ZkgljpX3f1ljR8ONOGPd2LkDJXBtwR8axuH1kq/hT8RQdeAIRuAj1GfxLDtZop5iJOI8pYRI8ER6WQFvIhyRTZ02fhLOOH5KR7Sqk8YNG4lrps+B4Rw4nyroy5TEKkqC3N2y8WJyMrHwQvOKK/nUl2RY5laU1UEFHabq1VOQJXp/uUYb0BodQs3pa4K1fgSBnvumXKNe0LCTsOPOD/3CoGj1753W7tqGO156Ak9vWI3+ZhPzT5iCj5xxEc44fnL0nQzA1dPn4F+WLUR/aBZCy6f1Uco3WVxMTivL1dOC/XoKtlFkYvNbsk+ijRFjFUkqpqj1RhvaGlV8HRfeOE/BcPJp+tjjMGboMIeDm7WKDGLYYcT/HdPandvwK/d+Cw+sWoI9hw7iwJHDeHrDavzaA9/B85vWJt89eex4jOgdgg6EyTto9k7wv2MRDxC7dLHojF8QEkyrNr7N43M1nlP5oN+rxtvFXtXH7pcdFqXOStfr/51z5uN7H/1l3HL2pRg5ZCihdzo+L6hih2RHYy3mP1G646UnsGnPTk2CELD78AF8+fmHWwtxkdTX3YOJI0crYdIhuTRCofyXByuUmWbMZsd08GG4Pv3bClnbL0k3zxce7Il7BgEVM4vG6wpDEIJnhahikFSeDZWDxbxhdTph5Bj8+pU34Psf+xV85JzLcMzQ4QVgAluV957Bxuz/vbzHU+tXtXAi47qlb76OHWKnMkvH9A2PGlelKIamWiQYT+p760ZsQFcugvBwyrupuLktrWjVgCidQuxXhYALe0MxOHDkSK3+syzDhLZifPOnP4WPnXs5hvX0GpCIEtgVbaYU/w1Sf7P8dJZ57/6EhwCQHFM5CUyGq+B5GSaz6CIEMYawDx0A1tf4Kc7iT9p7qenOeqJgXZ9pz1PIh08EhxyD59uWrZM0Zcw4/OoV1+MHH/8sPnrOpRgzdJizUspSEVf93y2decJUlZf0njp6LMYNG558v/WtS3yrkJ3qj3uKkvghSHqT6Kb2GAJcMVwd2Y0btOhf5I36iY2eqjwD2dfk2gRw37KXsWDjms5hAnDCyNH41Suuxz9/+Bdxy9mXYHTfMIdxAsD/NuESAHz0zIsxqrfPlfc2uvA/zrwEPY3415FHmgOt8Yc1lBX0Sc8FBf/IGWL9q1E2HFC1GS1fDY5psIMw6DI20K6TrNYzOgWJg4E/eTNQCNh98AD+53e/gfuXvZwc+MVS67CEY/AbV95YKMbwIX0lvEG46Qod/a+cTj9+Mr5wzXsw59jy+J8po47B5y69Hm+bcWry3dU73sSuQwfahAmIrR2VkxN2oA2Sb5dF8qXDKSt0s6M8/Acocu9+u1Oz9Vp9pCO+oipmAcTaRetnaH8zUMeSwn/DArSXN9qZ1LoEub8ZJbRAAN7Yuwu/+L2/xbwTpuCTF12Fy2bMwZDuzjeuTRp9DH79yhvx0XMuxW/f9x08uaZ92XkbB/o9RY1LU37prr/H+l3bBYPKd+ySUIGXf+B/ZrYdDUvxRUkGzB0/Eb952Q3oSuxsPWfiNNz+ro9gx8H96G82ceyw4ehuVH83/9ja5e1v1P3ZrPI7Hfmti/quRZ0IaNaF8mrRre7lWlF3q9+qYztIEf10TtSKf1pn6qdTX3cPRgzpK7+aI1+BtYoT/bGv1AB3xlATAS9vXodf/N7fYv7Eqfj4+VfiipPm1GKoTBmAUUOG4c19ex1dCuKjZFAdOqzbuQ2rt2/1D8yRMTkNpC74w8ZEiaiY6UJXtnH3Dnxg3nmYfewJSVi7Gg0cO2xEbXrtPXwQd69cpCVTJGakbQrsjVI4ILTBFefvhGBCJvHIz5FXzvuDeCft+uSelMLrVaQpx4zD/Z/6TXz8wisxuj1wje97N6ER3QDoB9YW3oFmEy9uWINP3fk1/NTf/zkeWLZIHT5WJ92//GUse2NzZINaDn+Hs2x0m0dyOqXoT23rEKGv3RCo5/lllBdwqL8ff/XcI2o26Wikf1r8HLbs3S14Ag0v7LQ+Cnj1A7shUIZQLNbWkx8ZhEJkug3BOM8U3aSPyf2wuWovUTpNGDUGv/m2m/HDW38d/+OCKzC2bX2ic8qKlrpCRlwfwbIoW7hxHX7p+3+LD/3DX+BHKxbjYH/1FO3+w4fwtecekyQpYXGDxrc4kggVhsnoBxtM2hFsfJdpwFPrVuG7S158azCL9MLmtfjWK88Rw2RxEL5UKAEbfMcWgeP7z8rihuqTiXLV5jMmUGRhhlsy1La8WdY65e+3r3svvveJz+LjF16F4WapPx9Y+66FIDJcGLzCsw00m1i4aS1+8bvfwEf/6a/w4IrFGEjQ5P7li7By2xaCsyCY8b6VSTE8pcJlm35avMq7MJA0vANhAH/2zIN4cv3Kapgr0vpd2/G/H72rdYgzBcVfl1VBGpWrWgQWPqSo0zX8ovm32Q/K9aBMlFccmBu7qDA16BtoDuBD512aHKjZNHroMFw2cw7ec8Z5yLIGVr+5BQePHNF92MEiw4nE3zpvTmZAwOt7duLupS/j8VWvYszQ4ZhyzDgF+6GBI/jVu/4JOw7s9zF5xmHJAPz8Rdckcf7WwmewI7+FtCMe2DGEpYspMzCrfBv+/uYAHluzHOOGjcCscccP6tuIFzatxa/96E5s3b8njZMd8wigtFzZcZHFweKjGFK00DX8ojNvyyIPqxSiHvCJQV0G7Dl0EFOPORZzJ3S+rXjEkD5cOvMUvH3OfHQ3Gli1bQsO9feLbuyMCT9JQilPlUC10xt7d+P+5Yvw9NqVGDN0OCaPGYuuRgM/WPIS7lz0LMoP/g2XFAhl5lMVCvHNhU9j+/591QpQhUOFAFmYGQ5Z1lo3eGrdSmzeuwunHDsBw3uH1Do2Ys/hg/jGS0/iT57+EXa2t3LUO3Xcw8tm06yS5PCaxqNGsmv4RWfeptuIT8MxxWHAOwGKzGy0vvkPeOq1ZRg/cjROHj+xI0+RpzFDh+Gyk+bgxnlno5FlLY/R30/hrSdAXqmZlWqGgNd378Q9SxfiqTUrMaS7G3c8+wi2798rX6ycvUFWTyFyD1EHB2aoFASp2Sabjyh2MwQse3MLfrj8ZWzZuwvDe/swpm+Ym5U70hzAim1v4M4lL+BLT9yDJ9atwBEyMLdT5UkeUKUQJTWUgr2fjf/Mx4KpQ6cvk1aUlTmrZBmi811dDcybMBW/cMU7cNnMOejrGeSFKW0hvf3ph/Hdhc9i18H9kdCgQ28XERjZSqPRKBYvK5XAkPmVz34piddN3/gTrNr2hjZqgwhhq4UsEo4kvV3r/+6uLozsHYLJo45pTXxkwK6DB7Bx9w7sPnTQKYEL1WvwhN1XwZQiTe+Mvw8gG/+ZjwZJrEA7IApB5v3rAK8ZYL1RS6jOmjwdt156La6ZfVpHhxHb9OKGNfj5b9+BN/bu8t4uEvfWsVL6Z8Kj+sETDZcy/NsoBC3LOghpGY5VQqbwDobHgwjLqyKQSJiuldjSSZQZnjTUQNzO1amZEPEzn4FJTY4ENv9NKpmZkGaziefXrcIn/uGvcdPf/B/8YPGLOFRjqpOlsyZPw29f9x56NRabPeOnAVpwO10HsOsecfQ7SeXsmVl7qXwx8Y2LwZtN0VaeqFKgFWITRzpTNeNGyOvkipKRr6tkqmEzvYtANvcFzqc6uzMDnb5kxPZY+IUXYOHGtfiFf/4qfvJrf4L7Xl04KMW4ZvZpGNk3lK5JMPjZrt7o9ncDdHSOPDHnb56m4TOLeZRP7JttYnhKMPXko8OJwRuZwqyY24RdUGVT/XTqPHKiildB26db9OEsFb8bOY2jy2lmNx5b0a7+8L9q4cgzLH9toNnEi+tewye/+Td4/x1/jHtfXdjRqvGQ7m4cN2xk2WzsI3/rAVMnZNBFIW7uvZUix6vUMuxMaF0nvDlq5IwnC0SopFJE1zGIgAfLYBj2srUijq+p5bLMCEU9UwKHvLtGxCf5cEnhGCqZyLXcKBdhkupDLp2EgAUb1+DnvvkV3PSV/4O7X3mpfXtQdcrPIk3ShQpz1Ld5BgRAhR9W0Y2JY1sM6qYiZPAG0MGuTrsL3ooG2r7GkXk7amWjouTDE+fJCDDshEP/nYvnSWbyxEdSHMReJh9LaSeYwJYBL5GklNYQaQFl7ZSAN0MTizetw6e+fQd+6ut/inuWLEDtxPpXfVRpOW2kLAuMTh4H0n19+COGMxeN5FZ32mmAVrBo8OM+5SybY4pvLVCEnAYS9u08WL0YaYIxXHUYIVpo2OVtFluVnZWKU7pHA7x5v6PDfUNZhyqJgK8Zmnhx/Wu49ZtfQVWyVkpBIuDL10XUu2RcwYy79xz8I3njQjpSCoaDNUzlVuk4DvzDqUw0WaiX40EaXKkkunbxNpERF+6ZuQ169pbxfM4zhCAfEfitUrcS3fAfCphCCWFsGdICD3LHZvC3uqipMrvvPRMtqTzpsFayWprp45XafSg+ZqSJTDWhGWDv2CDtS0hk83WU4ifnX4Ad+8XWDUcGtn4QqZMBzWbA5j078fT6Vdi6b0+LvnJtSNBEXy9grz4A2B0h5ax8LriZvwQFaH9Ho2nktutLIiWuOW4dYpy6OCfkvQNB0ioUOHTrdgXw7cqKcRIZCzx0WVSJpNSRD3eUhcuvYQqEDgUVayYqxPJhSWyq1KosiFckwf3VUrkI2Hytz0VE+uD8C+tX7iC9uW8vPv/g9/D4muWIWQJ/wFtW8oHiYJWCMUB3JenLDBM1JKJSSgnYVV5l9aCyDe664+MF5fpUTV2HhlOmZTWdJry/DbLk8xiEyRTKvyx8Ml61JFTq+w/BSPuObY+FWOWDRJD975COHT4CX3rHB3DdyaeV4V7wgNuQkJLZk4wu28TCJzrQdn348AkupLVT+1Zw4jQ35zJRyCN50g99R8eu3GkYoVLIWoboeLx+DO7jbY8DURJbPbJwFOKNwi+GGePwH6cPAIBhPb34navejWtmnlpeuoSEUkgclIC5wUFRp0qUdNPWyNjHFYpiWV3IkB6bsnFeww2aiIYL1IwVD473bNiSXKdgU7iBzRP4JRzm4KM0pgzxSuIWv3KrRbydznsrxDCwDHir3wcdrTS8dwh+920/gWtOmutpFjWw3MjEow1jzOQPp3+SQ3UPhLYpxH9G8g3tcUomBYuwtBwufDIIRYRcZ729SZ7zZAsjQhclC8HJhXsRHHywV8NTEFcuKJiwvP9xaWhPD2675mZcN2ue92wCH8oOYljjM5j5i0HT1rE3TvP4HSEsfBLd2gVOaRqDWJiLL8frX5kpYpaWCVBlYmMMGOCZ0NVXieiTOvDWCZ9iYwxjbzoD/d85De8dgtuuuRlXzJhTAKoNPotTrQyFSJm1lXIQXR3SmgbbWW+YvINijXJGNESpr2CsqN7IFewf9QKzsnXm+P1qKkeGufNoMiFKCSvzdtpVu1DJhQc+BHQMCZH4O4rjf2wa2tOLL173Plw36zSBk4Ax81FTQbcgKkWUIrfcSRkKnieKZoYHpoCvcnswTKPqWt4AfT5QKDE3U2fl7Jl66FLrqa7DrqL1ZWbiM7JOUcwpv9XEUFXUzMRMXotTyc8mQyjPrYqWpWln049fW469hxMXzFfM4eZPu7u6cP6Ume3v0eNpaE8Pfufqd2MgNPGjVa8AAejuamBU31BMHT2uOLpzx4F92LBrB/YcPlic3dqabq3gjOGjkzO/wKV4ULXWFeu01UwW5Xm3nIZ1C2Z5qV14UesUbVXODyZDgF2csusStS4yZ+fztCe2y2uM6wtVWVPAj5xxBF55iJXAUcFrcMpii0aGIQj5V13lHHlV+v2H78KqbVtyqMsH5iMdtfyjPsIqn1990lx88e3vw9D8oOZIGt47BL977XsxtKcXY4YOw7Uz5+KU8RPQa24ePdh/BMu2bsZ9Kxbj3hWLsPPgAbN45xfzirJMGE1LZmGjB2NYQ1u45dlbeokitLttr3UB6C70rYBTKkCAbEkJlRMieAWwCPlrfRxC6jJ24rD0C6i5OBcMsS0mBF6hxII0lfBX3WwEl6/v45hQMQJZeEtD1XrnwZWv4HP3Ar973U+0LymJp9ZA+yY0skYU9b7uHpwxYSpOnzAVHzv7UvzNc4/grqULcLjYlSxgC4YH1lMongDyFiAwI2QWgOltUtDG1h5Q13b5CBBjiNziq5F3coBjh6I2HtdlUQ4nVnLcYp6IxzsZQwSKEwskqwZ1diTgO6++s09Fy28xBQNy4PCS8eOPVr6C2x74LvbX2DHclVAGmTIAxw0fic9dfgNuu+omjBwyhO5rsvDxMUbsPcIDOtsEX8+QiUGUWJiz/ZfAx2WkHKiK8/oEAGwgS7pk6wAG0AyDESiixITECl5boc5uTLKZjh3Fn8VozomCAipHc6IUeRlZdc7L7lu+CL9x9zdrb6Ovm7Isw9tPPg1/9M4PtjxQIX0CfiJXhA0aB92M7NE1kEVobukZVL79gVA5S2AXjspH0spaqxpTJKblTN8rVx7bkOld+R1aWUlEpWNWoDSgUilitp3f0ZcGQSrFYFxFeleBLSY4tIseXr0Uv3XfneXZuUcxnT1xGj57ydvR3WjAczOGE5EFg7DfehNkA+CtICZ8CoBGiL3HVbHIByPwbkXbio5FqMYcvgfeh091U7ANqdeJlRUwsu93/b4bT6o6X30l9+5b9JNWlUyLl6hp4CUPAnD/ikX4nfu/e9Q9BQDccMp8XNle03AL+jZcLYyroL8yZMS3B91C5QIwXSsqu2hot6G6cuZE7y0nsVOE/4H0XACfCD9q3eFcSylK7xcXqqB40EqZFiCDI7VcTubNZjm6wt2BYrPww/DA2UnGAEAJ1QMrF+P3HroLzUHcj5FKjSzDreddgWE9PQUVLfxMsR3ekgBKCRhPLM0qlEKMVRuuhShvaLCQ2M3IyjxD6Fd1KfkI9Swq0k0kcXRWtZ2yLCvuSY41WPmVIBhDBoMEIGdu7LOQIqs1TO0fo4cORVbjoLgjAwPYtHsn3ti7u/LeOACYOuZYXDR1VhLd+CbW4MqjxjjEe6g+uKDVQHfZnrkUpZgRI4thIfadRrtiaE/lZkEzDm6GTcfQmQ5PcnjqzfHHU2FVI98nsA9cEFBccHL8iNG4cMZsvPPUM/HYylfxD88/Dn0puCd+hkzRtHJKthqLkv5wE6yGB7Isp6eE10Id0NPVjbfNmpecTQoh4IfLFuKvn34I63ZtR5ZlOHX8RPzSxdfh/Ckzou81sgzXnnQqHly1BMHJkOCJxDXIadpWPpBqDKfcc8eOLpUNFDLefrFcYcnMY0FHAOrLtQKh4oEUKsquQjGKm+YTN8/HmNFqP1P5OopxTH7Zn5CD3PjYr7wAoNEAjhsxGhdNn4Ub5p2Ns6fMwJihw5BlGcYNH4F/eP4J1RhjAFtyozjYFe047xTQxU/DA0sOJXiW5gFFWyOH9OGU8ROTIPxw6UJ8/sHvt2/6acH/ypaN+NW7v4k/vfGnMX/i1Oi7px8/Bd2NLhwZ6If88k5/tdbKKMOkBL4FPJOZok4oZcLuKpBeQh08IcSuO/qVmmI3W1Qpa1i+sUUV1xb08nv+XrCeoXLhpTre+PIHPoE//NFd+NaLT7aFkFulMUNH4KqT5+K6U+fj/BNPKhVJpLknTMaJY4/F2u1b4VbgC0WXQlvhCUL56WYqFf4hn6ttS5LzUMwN24fyUZupU8eMw5Cu+BViRwYG8FfPPFScjSVx2nVoP25/7hH8+btvib4/fsQoDOvpwa62MilJiTr8UonrbOsoUY+GMKJIR0T5tppu3xggvz3NP7sLOVTMyqJ8x3vjVseq/aKptpVCFkVo8PtWBDNGjsaXbvoQrjv1DPzve76D17a9UdD4hFHH4IJps3D93DNx6Ulz0NfTm7TYQ7p7cM3s03D7Uw+12wig36ZKOlWuYHc2qNZmBMqN609utefjq/StRscMHZbsd+v+PVi3cxvHIQAvbFybfD/LMowaMhQ7Dx5w8Cl01E4JT6LiGFWkPAWcnGZVYXZ7TFHcMee2FETU1obijMTWkwSFtyaCj2ZRSwHke7sPHsCovqGVDLl69mk4beJU/PFDP8DB/n6849T5OHvqTIwdPqKDbXat0wC/8cyj4vBegkXGrdigExk4K8NEmlfe2kbZRoCqdLK7vVodq9bTVX0PX9PubAaAzCg1RVzKS4jbnki++GnknMlVt3gqvJMBQA0kJOnF7IoZQziFVN6PWFWXhwO+1b5wc+38w8sX492nn1vJEKDlLb747g/VqhtLZ06ahomjj8Ha7W/qvU+ZED8zxnHekGxwrExisgPI+LjOjOkUGRVZtVKUR/jzNHbYCMwZPwlL3tho4Gk1fvG0Wcn3B0KzuJi91bsMy/UEUWbGRNYblbe5QuBgPUVBJYimKz1Fw+7xyIRNkfOz8occ3/mhf/kgvm9IcCeUJNLfIrT7ZybJbIv4ox/dhQ07tuHfK/V2d+Pa2acrHAq4GI00FQaZPA1DTgrRUfDM0Ytd8GwAWtdbHTwSPzu3u9HApy99O0YNGWr6D5g06hjcet6VSeg37NqBA0eOeMIYeO3KvV+8q0EaWa1iAdWuddk1dbiDANotsM6s4nhqS3hCUaBXVCldxNNg2vMavuKNzfjpr/9fPLV6Gf690vnTTtJwxQhQajxySlaehUuSEgfL1ViZopvPy8XGPQcP4NWtm5IwnDdlBv783bfg0mknY1hPL0b3DcP1p8zHX970EZx4zLHJdxdsWqtvL41Yi+hpGYSeelXbUCppmAJnU2ivQ+TWWE8HAmoKNpPn85TPlQsGyKCuVU9hTRHMAPKOGOMLZvrZpxVvvI733/5H+NiFV+KXr7oBY4fXvye5TgohYM32rXh81VLc/cpLeG7dKjejFts6TuaCBrEOkbPSnpEE07Y/4E3PEorYVdQ5MjCAe5YuxPyJJyaHOvMnTsVf3PSRjqDubw7g7uUvK2NWRm121JgxCXATAyokLFGvHZYXU7LQIVZ3QSlPezLatSO5dkxbfPBS0UaNZ2qsFR1j+AZCCBgIAXc8+RAeXfEqvvDuD+LCGbPp3RD1GdnE67t34qFli3DPkgVYvHk99hw6oNjFYLRKwGLXRpZh7PARuGT6bFw354xqYISpK768KwaRbaESAh5TCkNlNdb74asL8InzLsf4EaMHTTOWXtmyCS9sWJMzCkxYSv0WxlaRLC4w6QPoso7kKD7x3AY+H7iWr1uNVpyBW6jL3xLzyZnU+iqNhhhEyUFpGz5mZVdu3Yyf/vqf4pbzL8dnrr4RoyqmFFla/eYWfP7u7+CpNcvbc+/ChsmBbF5miGuVIM+PHT4Sl580B9fOPg0XTJuF0X0dwuaNe1HObBY7hpJPgAXsPLAPX37qQfzONTe/JUMi0+H+fvzZkw+Yy97ZjKYdaAt4CyWR4/hE9GE/c7bHaNqJayFH3WrOv/BLQuSLEXzmYRBwFK7PWCX9lVfGZwkg3rFKIN7JO8xXWHOYMzIbdbi/H7f/+EE8vHwxvvCun8JFM2d3dD3XieOOwy3nX47V297Auh1boelkZmogdNmESw1kGD9yFC6cdjLePucMXDBtFkYO6RtUuKQECICbxoMMWUUe5XqS5wmUwHx/8Qs4e9J03HjqmR3CRyAOAbc//yie3/iaXwgDtJxJbbZKrOAXxlbwQEXdTAmk95YBkdSnDOgacu682+pcV8vudJbtyR/eI/L7vuz9waXu6nCk6s67WD6EgB379+EHi1/Ejv17ce6JJ6G3O+0U89TIMsw4djxumHcWdh04gKVbNoqphYzCm4OQZRlG9w3D2+ecgU9f8U585qobcfPp52LmscdjSHfPoO51vv3ph7H70AHtm6VAFWBk9idULUNzxYzQOlX96XWrcMaEKZg0emzHcOYphIDvL3kR//fH96MZmpRHeb9GVAgOFl4rQ3GeaBnS7pHecTfq538yRB9WXdhny6JKUYWQDKdMnUwg6HifVgpbNuO44/H/3vhBXHbSnI6EMoSAh5e/gv919z+3vEWEISeMGo3zp83C9XPPwiUzZmNYxffKddPa7W/iHX/zJRxp9rd56pWACrwHstbNnBmAYb1D8BtX3oib5p2Nrg4vvjw80I87nnsUtz/3qNsNq3YtROGtwMkogSFG9LbRolVbLOmjFMK8nCMgqUn6P7rAC6boOhH4JII1bhYd2tOLD557CT57zbswusOxxRt7duH/e+gu3LngWRwZ6Ecja+C4EaNw0YyTcf3cs3DO1BkYM3T4oDxALB3u78fnfvgt/Mvi5zlPBBGpEWJlNQwVMqCn0YWrZ83F/7zoWkwbe1zluKK/OYDFr2/Anz75AF7cuAbNELhcWc9mcbKRgUEk7jmKxk2XmW4zJUOjfu4nQ1IJKAM4sFFPUUAtBuTUM0TCAfWHuEIPXtp7ZBlOOX4ibrvh/bh05hx0kkIIuH/py3ho+WJcOWsuLpx+cseKVTet3f4m/uzxe/Gvi19oCVfqWuEOrKouqzZMw3qGtGbDZp+GMyZOxQkjRhf9DzSbWL9rO17auBZ3L1uIFza8hiPNAceDShlq12fhU+bAEl4mr1OlFJEjeVRZBmQjf+4Dwd8fDCdQlUpgO63wHiWRQj2EcoAdDJzgde5s7u3uwYfPuwy/dNX1GHeU1y0Gk5qhifU7tuGx1Utxz5IFWLBxbbHVOuadkxeZt99Tj20dpxSWjuXbWZahp6sLw3uHYHTfUDRDwM6D+3Gw/wj6B5qeJ1au2DjP9kgUO3nfOfV2DAeiBJY2yFoKQYEdzJiiylM4hWDIKEq4MUWmKRWFj04UkDFQlmWYffwk3Hb9+3DJzFOOarhTJw00m3hz327ct/RlPLB0ERZtXoc97Q/+613EzhWgylP4UIbxwPaXJd7ndK9jqJITNonwieJIPF1sTEFlPFeIGJJvOXwyVLZCX6kokXAqitAgFDvLMnQ1GvjYBVfil666nn4HcTRTCAHrd27DIyuX4P5XX8bz61cXnoBarho0T4YfbzUml2XOqnr4fMRRwYOIF6DyGPN+UcUmYbnrSij6yFs/EFy/qdiPIsCskgGfxoN8irZssjMtZ/FhDIcYQ2aNn4DP3/B+XDJzzlFbnAJaA85Nu3bgsZWv4gevvIglr2/A3kMHy1GVdeVq0bIOTyq8dYIHlfRVdFI/uMzUCMHreb8OpmSrcErIiJySbSmEo0WFUNXyChx4piBinS2JUNzrWAvlGWDrpYjf292NW86/HJ+++sbK7yyq0uu7d+KBpS/j3lcXYsHGNdh/+BBhiIeXCpVkbB2BMnilBChjjMi8AMVDWMMThlOn0QYrq2VYB+M52u2MuPX9wRFbaEwVwess3nlYOXAuZqwAHtH6XKnrMEXmp40bjy+8+4MdeYtmCFgrNgE+v34V+gcGCA5EKRLxd8z7MZpb25IclFbxJBV6MJASSlFrAZjkYxFJtN8KTxGXIRiFqGIQ7bwDjbbEr8GQOlYqHh96BtQJnyS8fT29+NC5l+BXrr4BY4byscVAs4kte3bigaWLcO+SBa2B8cGDov0EQ6roXWNMZHHoeIozYWmZ566LA5MXBl/HkwdRpeYwd7J4l4249f35NhAez9YRqhpWKkrwirym6dGwUgQnosRWgGYedwI+f8MHcOnMU9DVaCAgYP2ObfjR0kX40dKX8dy6VTjULwfGnuAS5nTMbrZJJzxHfZ4I+ho6ZSxf5SlsWYXlHcwYghkqD1pVSGjhj/CkUIhPthRCRyhpYOvGr8nVx04R9HFAwlMcJRyMVerp6saMY4/HtLHHYcuenVix9XUcOHxY1S+wrGGVkvH3YLwzkPR2MYFhisPg7QyHSMRh/3Q8zqgz1c8Vu1IpAGQjPvm+YJ5UWiV7CFcc2IrFpNoaXQehsr8AzxCHQ5aB7YWuMx2oGWC9UV0csqiwMG9dNp1WCI9D/Zka3oclYkW4pOgWkFL0wXqOeuOk1IKwgUjkG+7TRJmR22TV98L5NlzyXaLJ17vby+btkelZCYJtzIIc+ZQQtqscrvhXl+3X7U2cpFIKB80l/fmsArHMBNu8YqfBwR4D7wSK33nncYjgRHgUIlVlRl1BHKFx/i2C/Ua+MgV7RHRGuvHXOIvXVZnkidnGqFijsI+CWXFgsWNKRAmCe2QZEqEs747WrnMqLD13NTBie8J4HCKARi0Eex40PhUCE7vIkimyFtiS9+rrvDrwgzZvqZKbCa0ADH2iJOzMXE0TDr8mGVMKDXKjpHmgFSTT2AXaBZIWIUoc6LYs0zQeRR3+gbyBrcCB2AlzB4D6yL+NU+WH/07IQOD3QlPw1phLK0r6MAbrKYxhYgJDDBPDU3fLDBWRAwub8n5SPrzSBtVIoit2OoZmJLxaGE8WjDRapaDWSjOzEQxC1rwqBAsmhxjtogxBiDFExgQlQnURiPkCT3D7WkjCX+BpcYLByfVub6WJwWeFyioKeRJMWdwsx3EgAqPby3Q+WGEQLTlPZvhi4XVwBN+0UWqFQyhpTnnKKCG0L26EymJ9T7WyvFE/XiCkXVCFdLFWJEJJBYvcGaAQIlZVCVlCcRI4VB5v3wZCCyj3tjE3zctKpc5SL9jwo4oPKSNTtBeir1YNG3XrFoeQFK1cbN2Vaq6DmHoFhR+lLfPWIt9wTAxgRc5KMdqyUKPyYvMCIWuVLHWDVwBHn1AYKk5sFFZMOH+vFOZ9ZmWjKZR1qJKEFLwlYFKJS4fsvaPy4GjPUFXygDtY7zn8BSeGmAV8lgbOGiOOg5Ur9f1+BIdAZSQTTRbq5XiQMhkNTU/iKWzsx5oLFXlX34YeCoii0Mt+wrJFQbCunKTMvtth6GFxcgIbfasKckQzAqXAqtVw2L59Dp8zfKT5uqc0sratXIVadGINBQ4bIYw9QC/PF7NMcaVwGQiTBRsLFgiRwbctSAYoocx7T5Ry3aXFYXrAPF0xvmE4RokPIBViCcCjoYaxss5TwAiLBcnBq4XKwRY8Eb2lzSRY8kck1GAgWM/GcIhEG9ZbJ1LuNTSukejC4ST4IPKNmI46ggurxDxF9CLFYkAUyjIBDR/kWQbInzEbQO5bs3WskAWCt5LnQBmk5ZAP8qg5sAwnddLhkyzWoQYzHMxyVI6TxJgo6G4pDponcZrzYk0sZlxrKUkw8EmDbJVCwexTw8bbbtECqURYmvAMUY0PUSnh/jpHMOkpLKVYnjXN3pEWJfBFMitUstFgapiZG7ZQpIBjGhfFgSiJI3eg74d4o4XxItTyL0f1Ii1N5AWwIKjWtLikOFMKR+9WPw3XCuCslF5dLVErFIC5vgQDAgVeE5etUzAvzrgSW7eQAm/zpgWVDwZmNlHghYDFwX71NMAOYSI4WLIqIbM4eCWuWkANdB2FY2C9tYdVGqu4Uqu1o4RhKuhfoU8hVcZkVP5oPyeD6riVYgJpFYUxRDElwpC8jahxLIDyljYQHNhCl7IcDn7TZ0TIHU6G+MFz1hgJawFK+CkOBv7KxbsIDsxCV3oKTVhvaVk+aBV3A1cFi4TKypDmk+glAT9fpdfjOu7Z8kcNpQBK4olSRCkXqRYrYwgxt2YVIE4aAy/rvvyVmSJmaTtz8RJe67xEmTMkmt5pmsZhsaKVqudBrhAyMG9dBXrQFS2xI8X0+SDhtYg7wxo4ofXCHPnFBnkKcuGNpWcowwzWdgIh66ppXkCQ9ImWGPZuimD/qBeYla0zx+9XUxnx+bYJTiPznsSBeQEV1horSzxf5VpRIGVO0U3ewG9nc9xakZQhBbPG0b/MZYh6D9lIZux/G4eGLK22hwk7VBRmvFgxpI7r9gIetaqyzHESvsyGGh1iTK1Sah2lVQFskEchYJ6uijkh+qqjC5sWZx2GyrIKRU8BmkCW6IrHsWJMlOPpyWDHQLq/hkdQmkthkYzGOksrgTBuz40fCAJUyy0xnFCV8Mn+KWkcDvCW1rLUWiWDU/VkAVccaZXY1vLS4MY8rIDfeEMFr32PjutSPKD+CvmgWRoqZ8OCx4HNprFxUomjVQ37pwr+mLGVnlMrcUMiGDxvHAKuQ1stiiBpgCgO1/TIa9a7ybxz09YaMCEisCo0fLjhYA08vCvyGSlTQpUDroVOKoFtXGGm7FmAFICIjjr4U/nW+5nJC6EqtDniDYmiMAZYJSt7iOAdg5fiIBhhZEh9D1FsOI0pAAFHAxYVXSok5UJMhEt6pO8YYPsqeJXCIfiMtbyxsiiMCcvqFvMKT8dpUjKCwcwtrWk8JWeus1rbVOLL7BUBUM0wPKToTTyDEYfKcR3DIRJJNFzjhsCVVioiQHGcCMPMV15+kMqonkWYyWmuIAgpGSn8uGi/xCmI5+7VCA4hojQZDN2kwFvPYYCtsJMaXluhTvxthIpvEGzjkKQ58wpkVwFTiiKqIYovGmAbGhleapuHMEyy7QZ1cxII+ZjizCwoQTDxTmzmI8Wg3O1pOhvXLX2XYoohrmOQ5gvHQdOhFkOgRzhsSlaVSYpZZ0kME2OD7MeFfxbWypG7sU9CKSSRk7tkVZ9RYpNigoNpto4cESYpfBoKzsIqRRAiDJICHgjBg+jYxYPK4HDAk1uvo+sUSMCvcVDi6eAnOEg4asyJu26DoXfCvAbD+ag3kTxwneXv+tCDTXZUC1Rw2dTeVAlfMHlDUsUDq0hWKRQPashRDPzyrdaDhme6eVci5FyfRDrumpVoWeAToUVqI5dXYg+0BpUJmbUoxEpxhyLaJ94OOt+plXKSKeBNC5U2TK2UQQmQ4wHgFd2SwGyW62CaPFOPOA8qw6cYAyA4XcEDxxMHfwviRtxK1UlEoCqFijDE0TaNILNSyUY9+VRZ5eyZKvMMYfPdSUMV+ICuEy6EChydVbUUCPEGKT6ueh1PUcGTAMjTSFx7KbJaw2T7qPJ0bEEVcpaJrq7yHmMTKyz88G6OMIStU6TEg/p2g3QRTsVxsPBrQEPp+eicfvmu+Bw8x15b1QhDGE5+0Mf28isXVdLb4ZBQAFFGZTX37gkckiesKFpQmy7yxNOpMm1omaITM1c2WLC0eu2oYZ5qLRdab+PZHNhAFackuLKqEY0OqkGDYwyZkLs+LZls340HPe66SwZkBoQyFikUVrUf8Y6G+GzmRoOVeRxcXqAXNVYRpQgGJ9WW9d5+qzvFgfFL5U3HchGU8MDTTTLd0FxNaxPDGoL/IjKhFA0XTxWk0AzR0/vxmCAdfli37JXEzsJU73AU7wjiMqvkiBvDQT53uh4PLfL3/JRrmiHaOxOlokrB4K+Zd95Z1silTQptQsst/EWbRnMlxMVcLbf1PAaqwEG2TzxD1QSIGFTrAuv63XPCi/TKo0HaORTmOSqAj8R/XmC0ErM5eer9HBpmzcDSyMygZQaHOotfSCiJxsG1ZA2jac4+157D8kBhoXhcZZjYCCIy2eH60m487fk0g5ghCb4TG9x4HNoRR4Myw5YZIWbW0r6q6ilja7Q31lSFUfJ9es8RG3ky/bU4VU0PpkBt5ROLjdH3qoWsqOUMCwjDPQ6MB1EsoivmkRT1bCHxvPwZ9wfMm6S9NwevWqjEoJpYXtsIdYXtaK54VPgp+ZmIwcEqhRcwtm25clq2GAMRHJQXCK43hkMs/ItaVZev8mx89dcZEwe6xdGENzIciXgG6ilY6MHWXkQoUndKE6oPu9ZlaV7yw5HReoqIUVAylPB0lkcNVyHLNLC+zSRC1jUG+jySp/FsOtzwp+nlp5NrhDnB5A9mDkMCfsEQKWRUqOBTTLHbni1zdb07C+oRs5N1lMIw2C2g0q7TifAkRBphOATPHBeWM6VThkoZW29cdf9lvlG+JIkfEQ6PeS2C1VmNZFax+GnymT9IyfQXyGl38ZkaByQxItb7ufADRoAskwx8yf1bJO8ME6VRXFydXhI9jYce3lBVn4VLlCDwMQVSZQYHjxOz2tqAMB4479fG4f8H40Ah/a6bKfIAAAAldEVYdGRhdGU6Y3JlYXRlADIwMjMtMDktMzBUMDM6Mjg6MzcrMDA6MDAFZKF9AAAAJXRFWHRkYXRlOm1vZGlmeQAyMDIzLTA5LTMwVDAzOjI4OjM3KzAwOjAwdDkZwQAAAABJRU5ErkJggg==;fontStyle=1" parent="1" vertex="1">
          <mxGeometry x="-1126.27" y="-847" width="50" height="50" as="geometry" />
        </mxCell>
        <mxCell id="9ioN4O_SSfm939H9G9DM-16" value="AWS Organization&lt;br&gt;&lt;span style=&quot;font-weight: normal;&quot;&gt;SCP &amp;amp; RCP&lt;/span&gt;" style="sketch=0;points=[[0,0,0],[0.25,0,0],[0.5,0,0],[0.75,0,0],[1,0,0],[0,1,0],[0.25,1,0],[0.5,1,0],[0.75,1,0],[1,1,0],[0,0.25,0],[0,0.5,0],[0,0.75,0],[1,0.25,0],[1,0.5,0],[1,0.75,0]];points=[[0,0,0],[0.25,0,0],[0.5,0,0],[0.75,0,0],[1,0,0],[0,1,0],[0.25,1,0],[0.5,1,0],[0.75,1,0],[1,1,0],[0,0.25,0],[0,0.5,0],[0,0.75,0],[1,0.25,0],[1,0.5,0],[1,0.75,0]];outlineConnect=0;fontColor=#232F3E;fillColor=#E7157B;strokeColor=#ffffff;dashed=0;verticalLabelPosition=bottom;verticalAlign=top;align=center;html=1;fontSize=12;fontStyle=1;aspect=fixed;shape=mxgraph.aws4.resourceIcon;resIcon=mxgraph.aws4.organizations;" parent="1" vertex="1">
          <mxGeometry x="-702" y="-824.5" width="50" height="50" as="geometry" />
        </mxCell>
        <mxCell id="9ioN4O_SSfm939H9G9DM-17" value="&lt;font color=&quot;#000000&quot;&gt;Management account&lt;br&gt;&lt;/font&gt;" style="sketch=0;outlineConnect=0;gradientColor=none;html=1;whiteSpace=wrap;fontSize=12;fontStyle=0;shape=mxgraph.aws4.group;grIcon=mxgraph.aws4.group_aws_cloud;strokeColor=#000000;fillColor=none;verticalAlign=top;align=left;spacingLeft=30;fontColor=#AAB7B8;dashed=0;" parent="1" vertex="1">
          <mxGeometry x="-800" y="-1060" width="240" height="140" as="geometry" />
        </mxCell>
        <mxCell id="9ioN4O_SSfm939H9G9DM-18" value="&lt;font&gt;delegate&lt;/font&gt;" style="edgeStyle=orthogonalEdgeStyle;rounded=0;orthogonalLoop=1;jettySize=auto;html=1;fillColor=#dae8fc;strokeColor=#666666;fontColor=#666666;" parent="1" source="9ioN4O_SSfm939H9G9DM-19" target="9ioN4O_SSfm939H9G9DM-16" edge="1">
          <mxGeometry relative="1" as="geometry" />
        </mxCell>
        <mxCell id="9ioN4O_SSfm939H9G9DM-19" value="AWS Organization" style="sketch=0;points=[[0,0,0],[0.25,0,0],[0.5,0,0],[0.75,0,0],[1,0,0],[0,1,0],[0.25,1,0],[0.5,1,0],[0.75,1,0],[1,1,0],[0,0.25,0],[0,0.5,0],[0,0.75,0],[1,0.25,0],[1,0.5,0],[1,0.75,0]];points=[[0,0,0],[0.25,0,0],[0.5,0,0],[0.75,0,0],[1,0,0],[0,1,0],[0.25,1,0],[0.5,1,0],[0.75,1,0],[1,1,0],[0,0.25,0],[0,0.5,0],[0,0.75,0],[1,0.25,0],[1,0.5,0],[1,0.75,0]];outlineConnect=0;fontColor=#232F3E;fillColor=#E7157B;strokeColor=#ffffff;dashed=0;verticalLabelPosition=bottom;verticalAlign=top;align=center;html=1;fontSize=12;fontStyle=1;aspect=fixed;shape=mxgraph.aws4.resourceIcon;resIcon=mxgraph.aws4.organizations;" parent="1" vertex="1">
          <mxGeometry x="-702" y="-1020" width="50" height="50" as="geometry" />
        </mxCell>
        <mxCell id="9ioN4O_SSfm939H9G9DM-48" value="git push" style="edgeStyle=orthogonalEdgeStyle;rounded=0;orthogonalLoop=1;jettySize=auto;html=1;fillColor=#dae8fc;strokeColor=#666666;fontColor=#666666;" parent="1" source="9ioN4O_SSfm939H9G9DM-21" edge="1">
          <mxGeometry relative="1" as="geometry">
            <mxPoint x="-1587" y="-660" as="targetPoint" />
          </mxGeometry>
        </mxCell>
        <mxCell id="9ioN4O_SSfm939H9G9DM-21" value="Users" style="sketch=0;outlineConnect=0;fontColor=#232F3E;gradientColor=none;fillColor=#232F3D;strokeColor=none;dashed=0;verticalLabelPosition=bottom;verticalAlign=top;align=center;html=1;fontSize=12;fontStyle=1;aspect=fixed;pointerEvents=1;shape=mxgraph.aws4.users;" parent="1" vertex="1">
          <mxGeometry x="-1619" y="-501" width="65" height="65" as="geometry" />
        </mxCell>
        <mxCell id="9ioN4O_SSfm939H9G9DM-22" value="Approvers" style="sketch=0;outlineConnect=0;fontColor=#232F3E;gradientColor=none;fillColor=#232F3D;strokeColor=none;dashed=0;verticalLabelPosition=bottom;verticalAlign=top;align=center;html=1;fontSize=12;fontStyle=1;aspect=fixed;pointerEvents=1;shape=mxgraph.aws4.users;" parent="1" vertex="1">
          <mxGeometry x="-904.41" y="-330" width="65" height="65" as="geometry" />
        </mxCell>
        <mxCell id="9ioN4O_SSfm939H9G9DM-23" value="" style="shape=image;verticalLabelPosition=bottom;labelBackgroundColor=default;verticalAlign=top;aspect=fixed;imageAspect=0;image=data:image/svg+xml,PHN2ZyBwcmVzZXJ2ZUFzcGVjdFJhdGlvPSJ4TWlkWU1pZCIgeG1sbnM6eGxpbms9Imh0dHA6Ly93d3cudzMub3JnLzE5OTkveGxpbmsiIHhtbG5zPSJodHRwOi8vd3d3LnczLm9yZy8yMDAwL3N2ZyIgdmVyc2lvbj0iMS4xIiB2aWV3Qm94PSIwIDAgMjU2LjAwMDMwNTE3NTc4MTI1IDI5MC45MDk0MjM4MjgxMjUiIGhlaWdodD0iNzk5Ljc1MDk5MzM0MTkyNDQiIHdpZHRoPSI3MDMuNzgwOTA3Njk5NzQyMiI+JiN4YTsgICAgPGc+JiN4YTsgICAgICAgIDxwb2x5Z29uIHBvaW50cz0iMTc2LjQ4NTA1NyAxODguOTk0MTYyIDI1Ni4wMDAzMDIgMTQzLjEyNzQ0MiAyNTYuMDAwMzAyIDUxLjI0ODU0NTMgMTc2LjQ4NTA1NyA5Ny4yMTIyMzU4IiBmaWxsPSIjNDA0MEIyIj4mI3hhOyYjeGE7PC9wb2x5Z29uPiYjeGE7ICAgICAgICA8cGF0aCBmaWxsPSIjNUM0RUU1IiBkPSJNODguMjQyNTI4Myw1MS4yNDg1NDUzIEwxNjcuNzU3Nzc0LDk3LjIxMjIzNTggTDE2Ny43NTc3NzQsMTg4Ljk5NDE2MiBMODguMjQyNTI4MywxNDMuMDc4OTU3IE0wLDkxLjgzMDQxMTMgTDc5LjUxNTI0NTMsMTM3Ljc0NTYxNyBMNzkuNTE1MjQ1Myw0NS45MTUyMDU3IEwwLDAgTTg4LjI0MjUyODMsMjQ0Ljk5NDIyOCBMMTY3Ljc1Nzc3NCwyOTAuOTA5NDM0IEwxNjcuNzU3Nzc0LDE5OS4wNzkwMjMgTDg4LjI0MjUyODMsMTUzLjE2MzgxNyI+JiN4YTsmI3hhOzwvcGF0aD4mI3hhOyAgICA8L2c+JiN4YTs8L3N2Zz4=;" parent="1" vertex="1">
          <mxGeometry x="-1129" y="-544" width="21.12" height="24" as="geometry" />
        </mxCell>
        <mxCell id="9ioN4O_SSfm939H9G9DM-24" value="&lt;b&gt;KMS Key&lt;/b&gt;&lt;br&gt;org-mgmt-key" style="sketch=0;points=[[0,0,0],[0.25,0,0],[0.5,0,0],[0.75,0,0],[1,0,0],[0,1,0],[0.25,1,0],[0.5,1,0],[0.75,1,0],[1,1,0],[0,0.25,0],[0,0.5,0],[0,0.75,0],[1,0.25,0],[1,0.5,0],[1,0.75,0]];outlineConnect=0;fontColor=#232F3E;fillColor=#DD344C;strokeColor=#ffffff;dashed=0;verticalLabelPosition=bottom;verticalAlign=top;align=center;html=1;fontSize=12;fontStyle=0;aspect=fixed;shape=mxgraph.aws4.resourceIcon;resIcon=mxgraph.aws4.key_management_service;" parent="1" vertex="1">
          <mxGeometry x="-1331.77" y="-847" width="32" height="32" as="geometry" />
        </mxCell>
        <mxCell id="9ioN4O_SSfm939H9G9DM-25" value="" style="shape=image;verticalLabelPosition=bottom;labelBackgroundColor=default;verticalAlign=top;aspect=fixed;imageAspect=0;image=data:image/png,iVBORw0KGgoAAAANSUhEUgAAAQ0AAAFGCAYAAABwjcqnAAAACXBIWXMAACO/AAAjvwGm+t7LAAAAGXRFWHRTb2Z0d2FyZQB3d3cuaW5rc2NhcGUub3Jnm+48GgAAIABJREFUeJztvXmcHEd5N/59enpmL2ktZFkgXzHEBLwyBCxCwNhgxweXbU4ZYo7wIcE2JCQB2wmQD8jiCL6weSEvBMj7I+EIxCLJCwEDxkayLckmr22OWOKwOXxpZcsW1nq1u7Mz3c/vj5nuqa6uqj6mZ6Znt76fjzTVVdVPfbv2eb5dXdUHMTMshh/nXnPr2GPN2SPJ53XEfBgxr/LhPIHAT2DgCWB+AhirQPQEgF1mngRQAZgAWgUAYL/KoBVtkz7AByC4B4MPAlgEgwl4jIEZgGeYMcPgGQfODBMfIPiP+Uz7CLzXB+8BVu3duumUhX73iUVvQFY0hgNnXH7DIS7T77HjP51ATwH4SPg43AeOIvDhAA4FgFaQcycJANLfmDlSGmZKtcIqrMhrbckVWNFcWGc/gGlmnibCNIAHwHwP+XyPX/V+sXXTxr0JXWBREljRKBlO/+iNh45UcAIYz4Dj/x6DnsY+ng7gSa0aLP1EohhxwYhstTd7JxhR85m4zoLpbpB/Dxj3AHQ3+fRD1FbdtXXTKU1YlAZWNAaIc6+5dWyuMfc8OHQiAycw8wYwfqdV2nUQphMMsCJLsiMJRtiyYkTRA67zIPoRgJsd+N95/OH9O27/zPkNWAwMVjT6iHO3bKnM/Wb1iUx0GnycCsIfAhjJFITtZDwIW4miBENgkF8wesN1BoxvEehLzsih19tRSP9hRaPHOHXzttEVE/4ZTPRKZpwD8JpyBCFSXJbIgtFuJS9XgVsRXJnxkEP0zw3iT+788MYH4ztZ9AJWNHqEs67adjyIzwfjTQBWRQbj8txApiCM55mCsGUrp2AMD9dFML7q+HzZTZe/7qdxAxZFwopGgSCAzrrqprOY8B7AP7FfQRjJ7eVKSfm5NsH4PLN/6fbLX78HFj2BFY2CcNbVW88BnE1gPiF1EEYqyEEoFLK0T5iXEISKvD4srZaB60EAmw//pXP1tddu9GBRKKxodImzr/n+EczOJ8F4VSsnfxACijN36iCMtdhTweg/106dDFx/7Pj01puveN2dsimL/HAGTWCYcfY12/6CfefnHcFAYhAqKnRKehmEUAXhMHE1C4aG6+/7Du886W+/emH8CCzywo40cuDca24dW+D6Z33GGyMF5V+ujLYbibOycIViMrQIrv4X6+OTF96+6ay5WIMWmWBFIyPOumz7E6jmfRfMf2Ae6suO3XbtvEEYFi+/pdXiuNJtzcriWT/4+zc/Gm/YIi3s5UkGvOyTP5ikmvedVIIhId/qg1zdvFyZOwh7zVXVjupc1XOu/LxKs3rLye/54tGK1i1SwopGSpy7ZUul0lz4TzA/1+zYiG0UuVypbCBiK5qZi6uina64Fra0WgjX4zy/svWF7/rSOljkghWNlFh4YO0H4fMfJTs2Z3TsWBF0QdgpVp3D8wShhqvEozuuqt0GzvUpTbdy/Ynv3rJaUdsiAXZOIwXOvmrbKSC6kcGCyOZ3bEBxNmRpnzBPFYQsVUkKwk6d0nFF9gfmCuR68+LMwdPtA3DZYEcaCdi8GQ4c+lhUMJAoGOqxdTur10GoabAQrqpWVMkeCUbBXF9YnVxxWdyShQlWNBJw++RNf8LMJ0Rz484vOzbHqsnD514EoSqrYK6s45pnabXPXGU7rR3f9fyLv/hqRSULDaxoGEAAsY+Lo7kdR2ZpW6iR1bEPAJBeh5dvubIPXOPt9oprvEZGrmoDElcC6NN/+L4vHBonaaGCFQ0DXn71TacAPNXJSePY6uG04Ng+wDeA+M89B7+3UK+Ofec9Z676znvOHGtyZQ2RczITrmTgN53dVZEuN7wEl1YjzefhKo+IFELVwlpn0blSwdRCATsRasDZH9v6BQa9qbUlO3Y0r7UlV5Ad27+B2Pmb695z+g+T2j518za3Wlv4U/JxKSh41V9gSw7MXqw+pA9CYagv0+oTV6GQpX3ScgXYYZy082Nv3AkLI6xoaHDuli2VufsO2wtgTQGO7RHz3133njMuz8rjJZu/u5qr/DUApyqH+qUJwliLPeUaNV8QV8INt131pjNgYYS9PNFg7v5D/xDAGgBdOTaAhu/QK/MIBgB8Z9OL9x/SePwlDHy1iIfQErgqjSybB+YYp//hu790crw1CxFWNHTwnZbzdLkESMBfffeS077ZDZVrN21cdFfyW0D4gdjugJcrhUQKwdBwjViUuEqmw42ecnX4ElgYYUVDB8KGeHRldWz+6nV/e/qni6Bz3TtfWvfYew2A2Y79eLv5uUqFrAvCPCsl+oxQ5lhRIy9XoSArV/L5pc+xt5gbYUVDCz4hemLO7NiLfoXfVySjG//urAeJ+WMDWa5sF+iCUDIWyZPHA8lc1SOkPj3c51Yc/83xQosAVjQUeM5n76iCcQyQ37EZ/r989+Izf100t9Fa82MMPB5pVxWEkbjKE4TyKEMhVOKW8kSf8yG0gXOl1yhqWLRhRUOBJ809dhSAitGxES8UHZsJW3rB7et/c87jAH0nbDdNECJeWOoH5gbNlf0TTnz3/7EPs2lgRUMBalaOTnRsyWmjvkmPHzJ/4Kae8SP+r0xBqAowSHnhT1IQKvZO9cDcUHGteH7lNAUBC1jRUMIHr22lcjv23ddu2rjYK34e+buSglA9BGlnyfwzBSFLVeKjg3gQyuf3IeBK9Nw4GwvAioYSRFjVlWODp3tGDoDfcKRvesS5SjETbvR9aVV1yVEKrqqsyD7HxXawAGBFQwlmHNKVY/s42EN6qE24jwsMNMPwWE4fHkJTZES0tkxc9WLGAAhsRUMDKxpK8HhkK/wvkqN3bMLaHpJDc8F7kjzg7zSvHiH1abkyakgWjF5zVbWj1Jg0XOloIpBi72UPKxoqMNxOMo9j+4f3lB/xERKddjIPV3l8rzgDi1u5glDDVdFOV1wLe2AOALP7zIu/GDl5WLRgRUMBJlSBNI4dK2on6Klnf+T7RyhqFQJifpF86i3NcqUyCDVcJR7dcVXt1h3XkTlvpYLRsocVDRUYlS6XAGmx0nx5z/j5/jlpgjAKLdf0QVjqpVWWqsRFNCtXb8RboSC37GFFQwm/9aPw57RLgA77byMUf038Rx/61gaANkQa65JrcUEon99Z4pWBq6oVVTIt11hWMteqV7FzGgpY0dBB4exZHJtBzznjsu+8tmhaDvgyhGJUzuXKcFvilYkr67j28V2kFkpY0UhEBscWChgAMV116uZvrimKyekf+tYbwTg9wiRvEEpcVQZ1QZjqgTn5SiYzVxUG9S5SCxFWNIzI6NhtbxOqHz1Sdf/z3M1bat0yOeND33g2mD/TMa0e+pdjuVI2k4erPMoY1LtILWRY0dAin2PLNhg4aaa68htnXH7DIXmZnPmhb7yA2fkOgPHQatFcC12uFJPDzNVCBSsaBhS1XMnAi8lv7njxh74lTGAm4zmfvaN62oe+9dc+O98HWjeMDcty5VLhahGHm1zFQva4XMuVPq9nx/l/L/7wt78C9q/+7vtffoeutRdfdf2EP998xSr4HwDjaR07aRw7D1eWqihHTKZmkC8Iy8FVPQSx0MGKhgY9Wq4kJpwHovPO+PB194H4BjDdx8BeB/4o+ziCCccBdBrAY2kdu4zLlWXjGrEocZVMhxt1mbwFACsaSrAfpqL5hTh2mHU0mN4KAAQGs3hXR3rHLu1yZV6usp0MXLVDjA6DWB0jV3uXhhJ2TkOLXjm2PuhyOfagucZrZOSqNqDjqubVypMlPpmreoSknHOxCGFFQwm/k8zt2AqzS+5JULn5PFzlEZFCqKK0cnBVNZ+Bq0UEVjRM6Mqx42fHXI6taGc4lisNZ20N/9gR9PqBuTRcLWKwoqFDasdW7VagY0sNDe9yJUs/Obj2+4E5CyWsaBhglyuTuaqHIO0smX/Pucoy2AVXCy2saGhglyvVdWSukulwo+9cYx3WJVcG7KKrGlY0kiA4VDbHVmUV79hFLa1qhxgdBrE6XXEVCgrhGtHaXnG1AKxopMSQLFcmcFXzauXJ44FkruoR0nAurabpV4sAVjRMkB27k6ndbOXZ5cpScVW0k5qrRQxWNHRIceazy5VDwlXikZqrhRJWNFTwgbhjR6v02rFVrXV+koJQsXe/lyuXBFcLFaxoKNG6IzTqbxH3VJyu7HLlUHJVtWIFwwgrGhpkduxYVryO7NiS6XBj6JcrC+OqyiqYK+u4WuXQwYqGAtGHXJMdWzvECFOyY8dMI5NjCwVZg1DJNXJiLhNXvUAUx1UFu+BqghUNHeLep3Vs+Rwbc+yYafVwekkuV8pcVe0oNaZfXOVRhpWLJNj3aSjgoXoZOQufTqyYcMMgCf9H8zUvaiCFUcM7HRaMBaod078ggtD8pA9+WTS3gCAcphUoe0OoElY0FLjhvac9CuDRQfMYJE5631dnwRQLsGF6YI5VCsPSPim5WnRgL08s9DBGUJ4gZKlKfHSgvrzRC0a8QvFcLaKwomGhhh/PGtQDcybB0MV3UVwt4rCiYZGApHkMdeRlEwxVlmKOIlEwMnCV7Si4WqhhRcPCgDQTn/F9sgrGQB7uYzNXCz2saFgYkXWlJDaJadgMGjBPfMYmNTCwB+YsAFjRsDBg2SytpnlgziJEKZdcz92ypTLzwGFPdhveUT45Rznwj/EJ42AaB/NIq5bhT+vHEu2kL+fGd0s8xfihAVbkqdGq6RtM+xqu0TzZYtKZ3Fen5KYiidDIc2IkUwdhGq5D9HCfDnsvuQTEx6arnBfEIP8xAAfBzl6w9wtU3J/jsCv29rZdPUohGi++6vq1VdTOZPDzwTgBdOgzK+yPMxEI3HnoNPxjyo4gJHTOQozWZ4nE6ixVSXLsWDOtlPCho7yOTZEiBVeKcs2/XEmRPajTXLRm2n5VBmFRXI0V+sTVBD4HwEkZdsgB8W/GADmA7wMPXfwQwDcCuBEV/9tYc810b3l0MDDReMU12471PbyRwS+vonoCg1uXSlQWZxns05WZucayho9rxKLEVTIdbvT6gbkS44kAnQfgPHiVJh66+NsA/xOeeP+3gGu9XjbcV9E4dfO20fEVeCMR3gLGiSCmmCOUxFkG+XRl6bnKdjJw1Q4xOgxidQbGdWjALoCzwTgbe4/8GXDRB/Ckq7/Wq4Pqi2ic+6ltK+bn8acTK3AJgCPCP1rkZFciZ+nL05V95BqvkZGr2oCOq5pXK0+W+GSuccHrC9ehgHjsYfrpgH8t9v7VbeB3vRXrrvlp0a32dPXk3C1bKudcc9M75ufxGwY+DuCIVklZnEVBugyOrWqnG66R5vNwZam6QqiitHJwVTU/IK5DAaVgCPn0PBDfib1/fRFAhX7Kumei8fKP3fzC+QfW3sk+/28GDu2UpHQWxAuLd5b4GSeXYxfNdaktV3azUtJvrkOBoPNYOCbu5AdpxiiYr8L0X27B9AXjRbVe+OXJcz57R3Xd7ON/5xC9Hz47uZ1FcoThfbqy3FyVJMOfHFxzr0CVgGvpIR4jq/Mj/RKKyGuAkaPx8F+fjbUff6hbFoWONM752Lanr3t89r8B2gSWBQMDdBaWqsTPYkuZq6JCp0Tm33Ousgx2wVXVSm6uZYfQL+bRRbuco/sBfwDP+x4e/Ath1J8PhYnGWR/fdjoT3QrCswbnLFIyrWPHsoaPa8SixFUyHW4s3RWopSQYggCoxUAo1+R3BOUZIFyPX11wSDeMChGNs6/ZdiH59G0Aq4BBOssQLFd2wVWhxDKDWJ2uuAoF2bnq+7F0XEsL8XhVYiCkY4IipMNNBoATMFq7Fji3kpdV16Jx9tU3vRtMn0YwPzJMzjKI5coErmperbxobhquccHLxJWHmKuqnWHSC1EMUl2OSPsFaVbt55+J6TWX5mXWlWicdfW2vwbwsTBjmJzFLleWi6uinZ6vQJUSQoBnm+yMp2PHHOmzv8OeC8/IwzC3aJxz9c0XEOiaDokhcha7XFk+rhKPnq9AlRJCX+Sb7BTKFflhOQMMAtPncd87npCVZS7ROOuam05m8Cc6fIbIWexy5TLgylKVsguGIADdT3ZG7cnpaEcdAZevyMo2s2icc9XNTybGfwCotdoeJmexy5VDyVXViio5tIIRJFVi0E5zUG4QA62gtPdVCQrzn+KBtz83C+NMonHu5t01Jv4PAGuCRofHWYZpuVLBNdZhZeGqyiqYK+u4DvtKSRALLHBVCINJDCLlOkFh9X4tEOB/PMut5plEY37lvktb92G0mx0mZzFwDWWOFTXychUKCuEa0doycdX/zYvjqsIwP4QmBHUvJzsjnWcUlOfjgT97VVr2qUXj7I/f9HwAf9Phk8JZ4jUG4yxlWNUZJq6qdpQa0y+uLFVX+F6UVokhdFDvJzsVtoOkLCj0/rSjjVSicermbS58fBZAJWgwlbNE/tYDcha7XJmd6zCvQCn7vgwQgre/k51xG2qxehYe/FPpM5xqpBKNFSudCwAc37JdUmeJM0jJlYefq8RjmFagolxZ+imAaykgHocqkNtpDsoNYqAVlPa+JkGJjS6ktI/3pDmaRNF41ce3rQL40qDRopwligKcJXEJcJi4xprpI1eWqsRFdHi4lgFiwGrEIOyvBEHRiQFk2wobSrGSBAU4Cff+2bOTjihRNDymSwCsyeMsigqdEtmBBuzY5eIq2emGq6oVVTIt11hWWbkOGrGAFPKldOR48gqKwYZWrIKkkHb8C7SHFFQxFb7iih0rmfEOk7Ooybe2Y8caBFW/HTvmsWXhqsoqmCvruA7Bw32ynQxcBwtBDEo12SnzUwkKvQEPvXnCdHRG0WC3cQGAVfG/o/RHizmL4lj75SwqriwWlYmrPuiK46rCkDzcx2aual6DhBC85ZzslPgpbaxAo/pK5eG1oRWNUzdvc5nor0qxBJjWWcrAVdWOUmMGt1zZM66RporhaiJXKr2IcNcGZDtuE8RAKyjtfU2Ckji6EPkpbLTK36A9TBhEY+VKvAQ+H2l2FsUxDcpZlv1y5TBxVe2n5topVkldWVRDDNiEgNSJQaRcJyis3i9MqvIlQYHBRtA++2dg71sPix9nC1rR8JnelOwsUYGwy5Wq3SxXLcnwJwfXUgwz5IAU86V0RDDyCorBRpbJTlXbEUGBi0XvxdBAKRov++S3JwE+W0W6dM5ilytLw1VRoVMi8y+U6wARBly4EU3HAlIhBlrBaItBWK4RA6VvCGJmEhRd24SXKo4WgEY0qDH2agBjsfbFjFI4i12u7DfXiEWJa8z/gr9pT7n2Dn610jTX4KpWDMIfjRiE/acQmiBtEoNAUFT7iYIR20/HL9b2i3WvBFSLBpOgMuV1FrtcaeAq28nAVaHEMoNYnYFx7SFGuT6TUGVl60cKSAaGYLJTypf541DcO6Z8ZD4mGudu2VIB+LSIgdBsiZylL8uVfeQar5GRq9qAjquaVysvmpuGa1zw+sK1x9jv+LPmGjypDEidGETKdYKiCeQwqcqXBEUnBuGPwUaEn6+8RImJxsF71zwHwKHlcRYF6zI4tqqdbrhGms/DlaXqCqGK0srBVdX8gLj2GAws3P2Jd9YTqkVHGpFjUQhDKkEx2Ch0slO2LfMHAFI+wBYTDSKcltpZEC8s3lnkwLTLlfH91Fw7xSqpy8OVy8G1DyDgV8YKuzfXAF6pD0h00rGAVIgBK/JDEypBEdJ5JztFfiqRA5+A6fPWyIcen9NgvCC1s0gHMkxLgMPEVUky/MnBtdQrUAlc+wXCz43lqw88FYCjD8h24JnEINKnGhu9nOyM8FPaICzg+ZAQEQ0CCMBzo7v2y1lYqiLbLZNjF89VUaFTIvPvOVdZBrvgqmolN9f+gRi/MNfg45bAZKeBf7sOxUUj8gHol1yx9ffgYE1vnUVKpnXsWFY/HLtYrhGLEteYfwVB1VOuqqyCuXJxXPsJBt1mruEfJ9aOpE1iEelPg6CkKtfU0bafVK7iRydCQmSkUanQ89Q7t7aLcZYhWK7sgmtcpKR9YlwVf8MsXIWC7Fz1/Vg6rv2FX3MatxhrMJ7RYisGZB7BkGyYBIOhEQyh7cJHP/gDbDs1MriIiAb7eF7pnGUQy5UJXNW8WnnR3DRc44KXiSsPMVdVOwPXCwDAj3/wD3/+qL6YCOBTOtuqgFSIQSwgVQEr5Yd/FIMYhD9JYmUSFJ1Y8TiecvjvC5nSRCjxiaVyFrtcWS6uinZ6vgI1CDB93Vi+553PAnBYGHgmMYj8jVVBLQesIt3byU4FP8mGx5FLlFA0XnHFjpUA1ss27XKlSurycOXh5yrx6PkK1IDAFfqKsYJDndsSTAE5LJOdOsELJ0M5MhkaXqssuovPdXyulMJZ7HLlMuDKUpVyCAaAH/zoH95mXjlh72VgglYsIn1oEJRU5Zo6WrFKKk/DTyrn6ApKONIgz99QDmexy5Vy4XBzlZLlFgwQ4VPGCtN/8TtgelG2gORounSTnUJaPfo5Bve+Zl2w0RENouOVByDBLlcauMY6rEuuXFwQDtUK1IBAwP1OM+HSxKc3A9yOG4UYKAMySCoDspMe2GSnwE/ZNgOohl9W7EyE+u3vmgzSWQyOzZ3G4jXychUKCuEa0doycdULRHFcVSjfQ2gmMOjy2z9zfsNYiYJX4akCVpEflpsCElCPLiCVG2ykEhTE91Pyk9sG0PTDQYUDtJ9sJTw9rDYIZynDEuAwcVW1o9SYfnFlqbpCqKK0Sga6Z9at/5Oxyt53vhTA06LHKgasRgxMgsIwC0qkXGEj3MUgBkp+Mn8dv/Z+TudKxAWAhfsOeyrgjw3dEuAwcVW0s2xXoJR9P1gQ6C8Tn2r1/fd1NhKCDYDx7B0p19SJ9ROnLE/DLwt/AMzRkYbn8/qhXAIcJq4Sj2FagYpyZemnAK6DBuNrd37qbd821tnzjtMBnBTsED9AjqYHNtnZbpsV+4XtJwhGhF+wH08Fb/JqzWmw94zo/gaP7sZZEpcA8zt2/7nGmukjV5aqyHaHieuAwXig4tPbkyvSB8wBGSSTAtIgBuGPSgzaaZMYKMVMwU/Zto5fuOMofo1jgbZoMNHxKh/p/3KlTDXq2IoKA+Qq2emGq6oVVTIt11hWWbkOHL4P/pPbP3P+I8Za0+84D+CTzQHJKQPSYGPQk52Jo5/WZGh7pNGaBBUrD/1yZWFcVVkFc2Ud1yF4uE+2k4Hr4EEX/fjTF37fWGX/X07Cx5WdY9KIgUlQIgGpEYMyTHYq+Yltt+Y1gjtCjxYr2eVKcRd90BXHVYUhebiPzVzVvAYPAq6+81Pnfzyx4lzz70E4XBlsAIxn70i5pk6sv3QBq7FhEoPE8jT8Inkt0XjVx7etArCyb85ilysV5liqvsQf7hswGPTFHz1x+pLEig/++akgXBgL5CBtCsjSi4GCUxI/5mMAwFmsN4/qm7Ms++XKYeKq2k/NtVOskrqSqQbjUz9+4vRbeNMm31jv4bc9EfC/DHAl2LFjI0kwWMiX00D876wSDION1IKhsaGf7FTwE+viKABwGc6RgG+XKy1XNcnwJwfXcg0zmJg23fnp8z+UXHWzg4b7JQDt5y3yBKymTu7LFV37WdrW2U7d9lrc87IRFw4fFf2D98BZ7HJlabgqKnRKZP6Fch0oHoWPN9/5j+dfl6r2gw9dCeD0/AFZsBjkFqsiBEVsnwmee7gL9o9kJoWBXjq2ZKcbx1a1okqm5RrLGj6uEYsS15hvBH/TnnIdKLZVPPqT2z9z/n2pau+58GKA3q0OuCwBK6S1AZlXUCQbuQRFbD8Df3KOdJmd9pxGb5zFLlcauMp2MnBVKLHMIFZnYFwHg/0AvfdHnz7/c6qBrhJ7LvxjMC5PHZClFwMFp674MUB0lAPitb1zbH3Qlc6xh2m5sgwrUGm59h8zYPpIY9F96g8/df5nMwjG68D4Z4T3LiUJBgv5chqK/lEFpMFGasHQ2Mg92ckGfgDAR7rweQLC1Uk+Z5F3QjkcW9VON1wjzefhylJ1hVBFaeXgqmp+QFz7CALuZ6b/45H3iZ98+u2/zbTzngvfAcYnATjZAlZTZ7gnO/W2W79HuiCMR+vncRY5MO1yZXw/NddOsUrq8nDlcnDtBwgPgfk7hMqXfvjEPd9PXEaNGyA8cOEmEDYByBiQBYtBbrEqQlDE9hP5P8kFMJ7eWRBB4Y4tNWSXK01cY82Uh2tvsB+EnxPop8z4H6+CG//nH86/K/XlR8zaX05i/sJ/AvFGAMIxZAlYIa0NuLyCItnIJShi+0UJCo23RANpnYWlKvLfq0yOXTxXRYVOicw/mesjDOwG8FOH8DMfvNfxnVl2eBbsPR5eMgZofzMzRCNSFEu1qshGlDuptxvRgmix2KL5RVd54TH5PvGBMcc/sN/xZ5XvuvhkTuMPnv8sgLYAdGxiQJZeDBScuuKXWD7hgjFhlyvVdWSusf4PBCAd130AthHTDX7Vuf7Wj77+N7DoL+64oIon0rtBzqUARvt3djaVG+oUOvopQlAAwJ9wGTwW32cIliu74BoXKWmfGFdF/6bj+jhAW3wHn//B5X+8I/dQ2qJ77Hn7C/Ak+kcAxxdzhi9CUMT8vGKgsNGVWCWVC5cnYmH2INQLBAv/SzUyBqEKpV2u3E1EV836zWt/fOWbDgIALlMegEWvcf8FvwuHPgDgTQCofMN9KV2OyU4Tvwk3zGkbiwWUYbNtJF0QRuIqcxDG8uJkJBa5uKqaz8R1F4OvOPI31S9fe+1GT8HAol/Y+/Zj4PF74dBbEbwCwk52puCX2Pa4C2Ae3Hk0Xk0w2IzXyRWE8j7x5qT91ILRKVZJXR6unIsrAXsBvnjHlef9q70EGSDuuKCKwysvh4+3AvxShO+LSQjI0ouBglNX/LLwj/GbcMFYAHhlpJocb8pMu1zZaoi/1Kg03/WDv3/zo7hcUcWit5i+YBxN52RU8DI8yXk9fPkO5wGenTMFZFkERbIXLx91AZ6LZEmNKINQcQ7CmV4QAAAgAElEQVROCkJFhU6JTCyTYOThKstgHq7+fQ7RG2657Lzt8VoWPcEdF1RxuHss4EzBb04BdApQeQEcHlGeTbs+wxchKBKn1G3rbPdMDNLy81wQFqJilyIIY1nxOnIQxo4xEADNmbxnS6sxJcjD1b/Rc+kNOz7yxw/J1rPh3Ar2Hflk+DQFwrEA1gK0Ej6tgIOxxN1LB+GGTF+huEF5vIPVNphHQFgJpknAX43D3SPBqII9tO4VKcvZOUvA6vgVIShi+3kFRWxf2XbTZca8iog6CCU7UkZ4/mZFjbSCwZJgCAXZBEPDVez37Fx9Yv/9O64876O55y72/c2z4PlngnA6cPRJQFscRGsU51V+BB1bsMOLD15xlw7fFb+8giLZyCUoYvtd9G8xfdN0QbTQOivI0aMKwhI8hBaP6n5xbQJ8/vYrzvs8rog3Z8RDl6wF8ZvAeCuAqdjdl0ONvAGZV1AMNkwBWXoxUHDqil8W/jp+yvJFl5gPxsJLEYN9WK6MB7NKIHrJVdFO2/4csb9x+xXnpXvzU4A9Fx2FCi4G6HwwRjPtOxQos8OL7WcJWF37eQVFbL8sgiLZy9a/My4zTyNWVQqgHi5XRo2oBaNTHGNRLFeJR0cw8JLtV5x3i4K5Go+9axXqzodQofMB1FLvNzTI6/BieiAOr+BXhKBInFK3rbNd4r5hOuAy6EESwy9xuTJ/EEqGpZ8kwVDs3fulVY99vHHHla9PLxgPXXI2qPIpAEem3meo0A+HB8p3ds7LX2NjWEc/5M+4BP9BgNRBiGW9tMoAvW3nla/7z3ipAo/87Up43ucAvE6pkUsChjNQpFyTH6RLJShiugjByysoYvtd9G+v+wb8W9chetBj2VirUm+WK6M2Svwu0g/uuPx1n481pML0xU+Hg68BWJ+q/tAhr9PlFRSDDVNAll4MFJy64pdXbDU20vBnTLs+/AfBiul8VRCKxxYLQsUxmwSDJcEQCrIKhuk+kXxceesRv3ZTfB8DwN53vwiO8w0Ak6nqDx3K7PBi+1kCVtd+XkER2y+LoEj2CutfnnYri/Rg00UUZVhaVbWj1JjCuT5Ucb03XHvtHyc/cPbQRWeBnGuBYbwRKwl5HV5Ml83hs/LXtb+s+2bancfY3irmPQCVwIg5CBW8YoGZRjBYqi4LBCs243UK58r05ps/8sZpJOGhi84C6D8AVBPrDh364fBA+c7OeflrbCzF0Y9DDzhbN53SBLA3MJIchBxtN1ZBFgwVL7VgKPsgXopecSXGv+644nXXK5hHsffiPwDoq1jSgsGIOkwewTDYSO3QGhsxfjJ/nW028JP5G2xo+cn8dfxM/ZsgGKzjL9g23wpuEDwWyhU2PO+e4MLkZ2A+IhbnOYPQZKS07yIlzABI/pL4Q5c8GYTrAEwk1h0qZHV4U7kmP0jH/gYZAtYoBnnalmwYy5Hx2PvcN1p+efnHbDQx//i9rQ/DEN8VD0IpmKUgVESpgle0sMzvImXgfdsvf/2eeA0Rm12AvwxgjbnesEF1BpLPNCyVC/sF6XAXjQ3tGTJIJgmGgpPMPzEgDTZSB6TGRqbRj6Z/dX2TSvAMfRPhr+OX2L/3YsPtDRcA2OPdIIobURJubcf+Pu2NVCslQp1sgqHKKoKrf9/MWPVzscZk7J39KAjPT6w3NMjiUJr8TAFrsJE6YHX88vLXtW/7Jt4+fgq032zkO7jL4Xglju+kbiOLYAgFWQUj1dJqvEYiV4Lz0bs2bVxUkOzg4YtOBNFFxjpDhWFxeAWnrvhl4a/jV4SgiO3n7V+x/T70L+EnQPu7lY47sitkmBiEsogkCUbMQGBFczDKZpF6aTXSfCqu09XxhX9WtCjg3Ap8+gfEvw4ypBDPQKLD5BEMg41MDq9I28lO9X5heULf5J3sDMulfN//EdAWje/97ekHCPygIu7iQYh44VAurXby/9fWTW9ZkHMj2Ps7bwfh2cY6QwE5IMV8Kd2NwysDUhaUoh1eEiuToKQKSM1xxfhp+qbbuR9d2wE/1XGl+tvJbSts6Pqm4nRGGq12aHfUFEd5xqJUF4TxOjJR5d8jXhoQSyEY6bgqWmsSnC8qCjv4zeZREL/PWGco0EeHVzpdkEwKyLwOL/DTiYFSzBT8lG3r+Mn8od7PGJAyfx0/WVA0/as6ru779zE8bevdgCAaYN5VQBAKP2kEg6Uqst0ePzAHfDdxxWR05k8BrDPWKTXyOjykur10eJGfwUYvRz+DGO7LfaPsX5Gf5riU/HX8NDZi/CQbzDsB9oHwFe8AE+6MGIiRQgyDWlqNWJS4xv4ugVipuDI+DyPOrYCOvthcp8xIIwam8nY6UQxM5UghBgpOXfHLwl/HLy9/Xft5+1dsf4D9S3RrkBOKhud7t1Ucp9sg1AhGKT+duFibcL8bb1jAviPPAHCMsU5pETiEdXh9+0UIXhf9W2jfiOke9A3zzmArvDzZuumcewBE3q6dXTBUKMX7PVVcb926aeOsknIA33mzsbyUYKR3aKEuFOnMTie1PdTDfUj8dfw0NmL8JBtlnewU+Xf2W8BkIxxpdOY0WuX/3UlmDsJYXjy4JSlQqUzelZKsXJlvVLTewSN/uxLgVxjrlA59dHil0wXJXjm8wC+9wxv4GQRFJ1Yxfpr+1fVNIj9ZUNL2r8gvoW9M/av82/q34Mid80GVqGgQ3daqrg727lZKYlIgEUdKwWCpqXxcmfj7ihodeM0XATRurFMa5HV4SHVL7vARfhobMX5S3wz16MfUv2zgL/BTHZfIT7Uf0feEDETepMG+f1t4+5KSvHwQwU+SYCj2lqM6JhixZqAVjOxcmRfwP4rKwm7OqSCVvbIhjRiYytvpRDEwlSOFGCg4dcUvC38dv7z8de3n7V+x/RL2L3t60XAnRn7QnKs3wZBfyxMf6mcSDJaqyMHYq08nark+eNsn3jAT3zNi5VRzeRkQHJh1eH37RQheF/07TJOdan73Yv2OHwmF0cuT71585kEwdss7931pNaYEccGI9VUGrtR+8EaPzS6ozO/7ZKR3aKEuFOlcZyDB9lAP9yHx1/HT2Ijxk2wM12Snmh/h/0KCI2cQcJu4c6qlVaEgm2BIfDvGRQaxOpkEQ8HVZ75bQb6DR2aegtJ+r6SPDq90uiDZK4cX+HXr8Mq2dfwkG6a+0fKT+ev4yYKStn9Ffgl9Y+rfVGIbpr8OCTHRYML25CCUd2r9pxMMyVgkL5qrEIxYUzKB7Fwd4LdxMgI852nG8oEgr8NDqltyh4/w09hI6/C6vin16MfUv2zgL/BTHZfIT9d20H4A4n3YV4198yc2d1FhvtGL7KsKwmhePDQlKVDoRe6lVUU7Wbn6rbd06UF8hEKvBog0YmAqb6cTxcBUjhRioODUFb8s/HX88vLXtZ+3f8X2h6R/GdfilK1NSIiNNK7fdM4egOLX/JrAjIVmr5dWJR55loEBelyxVwc+rTSW9xXBcUtnjFyCYbCRyeEV6aU83E8SjCzDfV3fDGT0I/OX8/1/hQIx0Wjt5t8QOygIgRvmyYIh20E8qvu7tKrkyj7Md4KCV5jL+wE5IMV8KW0nOw38TILCBv46fpKNpTDZGdsPAHAvjr/1ViigEQ18I59gsFRFDu4eL62qWlElWTk+ETDom7pUAdkjh1c6XZDslcML/Ap3eJmfwYapb7T8ZP46frKgpO1fkV9C35j6N/fopw3ClxUBDEAjGsAh2wA80qGSFITRArVgqLLioiILRqxfArFS/cFYx1WepC0rTAGJaFrrMEPg8BF+Ghu5HF7om6U++lEdl8hP13bQvtK2AOKvqAs0orF10ylNEP4rFoRCQ1kFQzXqiPh/TDAUf7dEwVAhYVWnNOjG4UWHgeI4i3R4kV9Oh4/wUzi8SVCGcrgv8zPYMPWNlp9gI5OgaGPhRzhux126Qs1IA4CPf4uZbBPmeKZ2s5XXr6VVlqoncC0NunX4drovDq9x1hi/IhxestfT0Y/MX2Hb1L+lHf3I/GUbSnzBVKgVjRc5P/oeg++L8pMFghWb8TpmwUBsI+tDaDrBMHEtB+SAFPOltJ3sNPAzCQob+Ov4STaW7mSnCnMg/19MFbSisWnTJt8B/qXTvhSackwqM3u1tKquk5ZrOaAKyB45vNLpgmSvHF7gV7jDy/wMNkx9o+Un89fxkwUlbf+K/BL6xtS/3U52KkFfxtTO/aYa+ssTAOzg/wPDUwdhJOzlqIYQ/ohWzC4YJiO5VnWQ/EH43sEUkIimtQ4zBA4f4aexkcvhhb5Z6qMf1XGJ/HRtB+0rbSfAoX9MrGIq3Lrplb9h4N8jzaYVjFiWFMySYCgURd41VljUqk7/0I3Diw6D2LEV6/Aiv5wOH+GncHiToAzlcF/mZ7Bh6hstP8FGJkHJ5O/bcdzNdyZVMooGAJDvXZk1CPu+tCrbycC1f+jW4dvpvji8xllj/IpweMnekpns1PRNeSY7FeD/naZWomhs/fBrbmfgxtRBmGZpNV4jo2CoDegEQ82rX5ADUsyX0nay08DPJChs4K/jJ9kofLJT5q+zLf9tdfw0xxXjx1Kd1JgGHfiPNBUTRQMACPzeWNSpeKVdWo1ogKwCaQSDpeoKoYrSGhBUAdkjh1c6XZDM6vCSDa3DC/wKd3iZn8GGqW+0/GT+BhtLbrJTAeKrMHWX+XvGbaQSjW0ffPX/Q3tuAwg4SgT7sLSqMNDZJ0pOtqgw2EuYAhLRtNZh8jq8ZGOQk52FDvel4woDLqFvTP2be7iv46/jp7GRSawUNvJOdsbxEObriROgAVKJBgAw+H0AFpRBWODSqtxq9CdJMBR7ywrEDF/RUnHoxuFFh0HkGGM2hmGyU9d2wE91XKnESm5bYcPUN8qA1fEz9K9qPyU/Tf/qxCqzoHQlGABwGTbcPpe2cmrRuOlDr7mbGR8pYmlVUaFTIndWJsFgqUoKroWiW4dvp/vi8IagLtzhJXt2slPDjw38ZP6yjdz4FUYmP51lh9SiAQBOdfVlBPy4k9OHTyd29ogVZRMMZVZBkAMywiSatpOdBn4mQWEDfx0/yYad7IzDcS7CsdfVM+2SpfLWTac0faa3Amg1EuMtBW5MMBT9ahIMlgRDKMgqGL1TDFVA9sjhlU4XJLM6vGRD6/ACv8IdXuZnsGHqGy0/mb/BxnKY7Izjehx3c+zFwUnIJBoAcPNHXn0ngd+deqUkUkMWkSTBiBkIrES2o3XUglG8ZJgCEtG01mHyOrxkw052avixgZ/MX8fP1L9s4C/w0/VN7G+nsFHcZKeMg/Dp7Xl2zCwaALDtw6/9FDOE5+1lwUBso1Sfeez6LvJuHF50GCiOK43Diw4t76fjl9PhI/yKcHiJv1as5LYVNhIDUnNcMX6G/lXtp+Sn6V9d20p+pv4tVDAAwkV4xi2/yrNrLtEAgP0j/BYAN6oFIyoQZfzMY3506/Aij147vCGoUzu8xoaRn87hkwRF5NdF/9rJTjMI/4ap7Z/Ju3tu0bhr08bFSs19LTPuAlIIhrETWPpJEgzF3oql1VhLXfW/HJAqo2kcniPHpLQRO9C8Dq+w0TOHF/lpjkvJX8dPYyPGT7Ix1JOdur4pEISfo9Y8vxsTuUUDALZueuVjfsM9zQd+2Mph6ThlwRBKNArQv3eRZoEqIHvk8Eqnix5DNN/k8JINrcML/HI7vMjPICi6tmP8NP2r6xslP5OgpO1fkV9C35j6N7fYFopp+PxyHHtbwidJzehKNABgx5WvenjMx6kAbpEFI9aHgQCoOodVgiElUwmGKkvOSDupYQpIybbWYfI6vGTDTnZq+LGBn8xfx8/Uv2zgL/DT9U3sb6ew0bvJThGPgnAGjt/xy24NdS0aAPC9yzYeWDm74gwAnwjyuhIMoSCrYKhGHZG4Tv1H6cbhRYeJc0/n8KJDy/vp+OV0+Ai/Ihxe4q8VK7lthY3EgNQcV4yfoX9V+yn5afpX17aSn6l/eyUY9ADY+SNMbd9VhLVCRAMArvvES+u3fPTcvwLznzB4NptgSGj/ITieqd0MGojtk0sw/NBePocX2+61wxuCOrXDa2wY+ekcPklQRH5d9K+d7EyLH6LpPQ/H3/yTogwWJhoBbrnsdV+Az09jwhdbOWkEI5oXFwhWbMbrmAUj3rwRdrJTfVwhP81xKfnr+GlsxPhJNuxkZxowwJ+FN3Eyfn/ng0Uajn3LtQhsv/z1ewC8+eS/+bdr2cEHmfHsWCWNiMRkRNYGZWb2B+bSIYtDyW0YAlZnGzA4vKk8K78s/HXtZ+Gv41eW/hXbH0TfFI6fwHf+Es+4+aZeGC98pCHilite980dl79+AwhnAbgp7LXQP9IIBktV5M7O88BcGhR1BlJxyHIGyurwOhsJgmEnO1MIhqF/yyEYPwPRG7B+x7N7JRhAj0YaIlqDgNd/C8C3nv/erx7j+PwGAK9l8DMRiJasHWEihWDEsiThiQlGmj9Y8PB8kljI9nUObyqHwaFU7WcRM137Wfjr+OXlr7DRVf+K7Q9T/xaGR0H8dcD5PKZu2d6LBmT0XDRE3PrR1/8GwEcAfOTEd29ZjWrzhfD9EwH6PYCfyuDfBWgknWBA8TeIi4osGAyAUrHN4jBLyeEle10Lnu2beJ3ceASEu8G4G8CPQLwVUzt/AnBvXxEjoa+iIWLn1Rv3A/i/7X8hTnz3ljEAY000VpktaJ7mlRWB4ptz9fmHU5EsZP5AzC/L2TmNw/vvRKVyHWKoR36SQZq0jIW0BgVzJtv1tGcHjY0ErpnpZibT3s1pgP1Z/GzdDDZeO8hvb4QYmGjosPPqjfMA5gEYP9jSU/gAqOjhaJJgFCEoYvvdnuGdh3H0l3M90GTRAzxj0AQ6KJ1olAPSnIaYLvNwP4lfpuF+KU5qFiWEFQ0t+i0Gkj1jeRp+RYx+LCzisKKhhI/ONWhRw/005Zo6hQuKZE9ZbmGhhhUNLQqYPyj9ZGcCPwsLBaxo6NCT4X4RgiK238PRj4WFBlY0tBjgGb5vk50G25RzidBiycOKhhLSnEbwO0gx6Nlkp6ac+W349WtPgwhfth0paP/o7jPSjWKE+sp7lFLsF2nfsF+MXwLXZvP9eOaOdPf0LCNY0dCi4OF+KSc7jfxOB5PQfoq2iREXW2ToG1LXSewbzX5KfmIdgrFvqu5VAKxoSLCikYiE+YNhn+wcptFP3/vXQgUrGlosAYcv3einCEER2+9x39h5HSWsaChR8jN8oWIgppfS6KcIQbFQwYqGCqZnT+xwPyN/XfvDNPqxEGFFIxFldnjJXi/P8EMnBpK93H1jIcOKhhZlOTv3WAxy8VtKox87usgKKxpKiPcOlNnhxfbLcoYvQlDE9gfRNxYmWNHQYsBneDvZmYJfEYIi17FIghUNHUxOZ4f7KfkN0+jHIi2saGgxTA5f0Bl+6MRAsmdHF32BFQ0lxGcS+nF27rEY5OK3lEY/dnRRJKxoaFEWhxfbL8sZvsDRz8D6xiIvrGgkYWgmO4sQA8leKUY/RQiKXMeiG1jR0MEO91PyK4vgpeFvUQSsaKjAijkNMT0Qhy/oDD90YhCmHwF4AoyxfPwsikJPv+U6/BCdv+3QzNAGRVikOcOzOOTWjB5MQc0sBbWOn8aGsm2Jn67toH3VcUXEKo9gCPxbaQ/gb4NwARzvKeDDRnDc1sNw3LZxLNIT4PMLQLgc4F/q+VvB6BXsSEMJxZu7jA5vKm+nh+4MX+DoJ1vbN8BxLsLTbvgJVHjW1scA7Gz9o/dh90mvAeNKAL8Tt23RC9iRhhG6M2gGwdCOLnSjB7ltIN3oosSjn0TBYADcBPDnOO77Z2gFIwb2MXXLFrj8DBC+ZQWjP7CioYUYkEJerFzMl4KmPMN9DT/NcSn56/gZbJj6JiooC3CcM3Hc9z+FPHja9sfxsPtKAF/Itb9FJljR0CG1wxvO8JF8k6BozvBRMtG0afRjHF3AMLpgqVzXNgz8RbE19I3Ij/nP8LQbtqIbnLK1iYWFPwPxTV3ZsUiEFQ0lfKR2+EgdNgRkkEwKyIQzfCRgNfyMowvDyCVoX3VcPRv94HOY2vplFIENtzeA2usBzBRiz0IJKxpGpBldSGf4yH5Sun/DfbWNnox+TKMLqW/i/A6C+QMoElNb9wK4qlCbFhFY0dBCChpTQC7ryU5T2wI/dd98rh3kxYKq1wB4vHC7FgCsaKjBaASJeECazs6Ip+1kp6ZtAA59Db3A1NZZAN/p2g4tNrons/RgRUONx/UBiU46FpAmQdGc4UV7cnopTXZG6jDA/AietvVW9Az0za5NNNwDBRBZcrA3d6nA3B7a6hxezpPSQ/kgVxb+OtsZ+BN+AfV3GIsBeT8Dd3VOZDzq2kscBaxoqMDY1/mEQd6AzCsoYn5eQTHY6EZQChMrBoDi5zJENP09qHQhGkQzOGVrszhCSwdWNFRg/LR1F3mZxUCyN2yjH8Y8egnXmYtQyArmXxTGZYnBzmmo4B3yc7Rua0b7+hthOkSas7MYkHkEo70fC2nZdipB0eyXSzAUNnKNfviJ6CWIDu/Swq5CeCxBWNFQ4dhP1AHsNjh8J20nOw38dfwAAEegl/C5O/tEdxXEZMnBioYW/F2Dw6cIyIQzfCRgFTYSRxdlHP3I/A02mJ+OH5/YQ+GgU7vb37+xGB5LD1Y0tOBvJwdkqYb7Qnme0Y9pdNGT0Q+hWnk5egbnnC52nsbUzh8XRmWJwYqGDo+s2A7gobjDJ5ydl+ednR1+uraD9sX9fP8CgAhF46cveCHAx+U3QN+UlNVCgBUNHTZ8pgHmfwq37WSnpm0dvxSCQnQC7nrBuSgavvPRrvYn75+SKy1fWNEwwefPgLhpJzsR3y8szzv6aYNwJe56XnErKXeddCHAJ+ben3AHpnb+d2F8liCsaJjwu1+5Hxy82CXrcF8MSGm/IF3YcF/M7/XoR+ZvsKHsmxiOArlbsPv4mq5Cauw++SQQ/ldXNnzqbv9lACsaSajg/QAfbG2UdbifdvRjGl30Y/SjxcnAqm/iR6euSlNZibtOOgPM/wWgG/H5MY7fXsy7PZYwrGgk4aiv7AHTVb0b7iNad6lNdqYF4wxUG7di98l/mH4nAPe8bAS7T3ovCNcByC86LbwLvXweZomA2E4SJ2P3uTWM4TYwnt3JzDrcN5W304nDfVM5cox+0vLXtZ+Gf2YwCNeC+WNYv/N26aA6uOd5k6i7rwLwAQBP6aZBAADxFzG1481d21kGsKKRFve8dj0c53YAo9ozvJwXpFMH+zCJQRp+3YIeAPgGMN0L+A+BaBTAUQCeDuCPAIwU0wx+jVrzWTj2NvuawBSwopEFv37tG8H0BQCUfbhvKjfUKcNj7Fp+hY0uBolFsH8qjt+5c9BEhgV2TiMLnvy1L4HwYf0ZXkrnOsPr5g/SCobQdrkmO8sIBuhtVjCywY40MoMIv3zNZwB+WyeviLNzltFD3tGF2H7Rl1NDCML7MLW9uxvBliGsaOQCEX756k8A+Iv+DPfzXo7kFRSDjeEfXbTBl2P9jvcMmsUwwopGbhDhl6+6HMAl+c/OZReDNPyGDgzgIqzffs2giQwrrGh0i1+9+q3w+dMACzcVFRGQeQVFYaMno5+hxCzAb8H6Hf8+aCLDDCsaReCXr3gBmP4VwNH9OcMXIQai7SU/ugDAd4PoVZjabt/I1SXs6kkR+N2v74BTeyaIv9LKYCzbOzvLCOIvgmonWMEoBnakUTTuPuc8AFcDeGK24X7Z5zeGEvfBwdtx3PbrBk1kKcGKRi9w31lPQN25DOA/g/jxjVKKwZK8HFkA+Cos1D+KDbfPDZrMUoMVjV7i5694Jir+ZWB+qZ3s7At8EH8ZTXcTnnnTrwdNZqnCikY/8LOzT4Hjvx/gP+pk2snOwkDwAPw7gA/aeYvew4pGP/GLlzwXcN4D8DkAKvbOzq5xEMDn4dM1eMYtvxo0meUCKxqDwM/PPBxw3gTwOwE6ojzzG8MC+imAfwF5n8PUzv2DZrPcYEVjkLjjOVWsPPR0gM4F+68EsMpOdmpxD4CvwXG24Lib7xw0meUMKxplwT0vG0HTOxPkbwTjFQAm7WQnfgOibwDYgqntOyTFsxgQrGiUEQ+cOIbZiReC+TQQnwbGswA4y2Cycw7AzQCuB+F6O6lZTljRGAb87PRD4XungnAagNMAPLVVMPSTnXMAfgDgFhDfhNohO3DsdfVBk7Iww4rGMOKuFx0Ft/Jc+P4JAG8AsAHAmpJPdvog3A3mO0G4HR5uxWL9dmy4vTFoYhbZYEVjqeCnL/gdeO4GODgBzM8A81NAOAbgFQNgsxfAboB/BsZd4MpujC3+0L6Dc2nAisZSxw9feBhq3jEg5xj4fAwcejJ8fx1AqwGsBmE1gDEQJsGoGCz9FoQ5MM8Bzj6AHwHwMMB7wdiDCt0Lxr1oTvwGz/zuwf4cnMUgYEXDIop7njeJ+WpLPGa9BTx/5/yAGVmUDFY0LCwsMsG+T8PCwiITrGhYWFhkghUNCwuLTLCiYWFhkQlWNCwsLDLBioaFhUUmWNGwsLDIBCsaFhYWmWBFw8LCIhOsaFhYWGSCFQ0LC4tMsKJhYWGRCVY0LCwsMsGKhoWFRSZY0bCwsMgEKxoWFhaZYEXDwsIiE6xoWFhYZIIVDQsLi0xwB03AIh+IiACAmbF582aSy3ft2hXmbdy4EQCwe/fuWL0iMTU1xQCwZcuWSP769esjL6LdtGkTt+mD7Utqhw72xcIlg0oMAgHYuHGjMvDXrVsXyZueno5sT01NYe/evUbB2L9/fypBWb16tdFhnvSkJ/Hu3btlfpF9pqenYzampqY4EBtRZC699NLWF2yto5YGVjQGACIilSisX78+EriBGIgisHr16jCtCvQDBw7QUUcdFcmbmZlRCY0yPwsmJyd5enpamS9u33///TjkkENijiYK0P79+8N0IDKyuOzatYuBjqgEI1rodG4AABASSURBVBYrKP2FFY0eIhg1XHrppaE4yKMFWRgCUZAFYXJykoCoAExMTITpgwcPEgAcdthhEQ6zs7MRO2vWrInULwITExP8yCOPRPJWrFgRcax9+/aFdQXOYToQmpmZmch+gbAEoqISlGCUYsWkP7CiUSCIiHQCkUYcZGEIROHgwYMkikEgBGNjY+G+c3NzEREYGRlRisLCwgIBwCGHHNLl0bZw4MABAMDo6KjSker1eiR/fHw83J6fn2cgKjD79u0LhSUYyagEJY2Y7Nq1iwMhsZc5xcGKRheQRUK8vFi3bh3pBCKNOMzOztKaNWvCEUEgCrIYBNuBGLTtR7YDVKtV7eiiXq+nGnmMjIxoHabRaCjLFhcXw/xAXGQxCbZ1opJFTEQhMYmIFZB8sKKRAeJchGokIYqEPILQCUSSOCwsLFAwKlhYWCBZEEQhEANflT8xMRE7psXFxVyXKbVaLeY4Bw+2PuEqCsvs7Gy4LeaLAjM6OsozMzNh+sCBA6G4BOlATIJLoWB0Mjc3x+22Q0FJIyLiJY29nMkGKxoJSCMUppFEIBLj4+MEtEYQwWWFTiBkcQgEIAj+er1OK1a0PgZfr9cpEINAAMbHxyNi4LpumE4SifHxcWX+3NycsZ9EEWk2myznz83NhWlRXFSiEghKICaykMijkvn5eQ5EJBiRqEREvKTRjUKsgCTDioYGuksP3YhCHk2oRhKySIhiUavVCABWrlyJhYUFCgRCFIyJiQksLi6SKAqBIIhiIItGpVIJ041GI5gPCY8162hDFIj5+db3oavVapjneV5ENETBCfYNhCUor9VqLIpJIByykASXOqOjoxyIhygi4kgkEBDxciZJQMQRiL2EUaNy6aWXDppDqUAtOIcddphzyimn0L59+5y1a9fSunXraHZ21qnVas7Y2BjNz8878/PzNDk5SfV63XFd16nVarRq1SqnWq0SM1OlUnEajYYzNzdHjuM4ruvSxMSE02w2ncnJSWo0Gg4z0+joqNNsNh1mJt/3nYWFBWd8fJyq1So1m02nUqk41WqVKpWK47ou1et1J7DPzKFtZnbGx8edRqNRISIn+Oc4TphmZmd0dNRB625gp9lshnVHR0edarWq/ef7vkNEju/7juM4BCDMr1QqJLQRpn3fd8bGxsjzPKdWq1E7j4jIGRkZofn5eYeIHNd1qVKpULVapZGREfI8zxkdHaW5uTmnUqmQ53nEzDQ2NkaTk5Oo1+tUqVQcz/PC0Rwz08MPP+y4rkuu64Zi7bouzc3Nkeu61Gg0aHJyEvfee29wwqRarUbz8/O0bt06/PrXv8batWtpamoKAGj37t106qmnwsZJB1Y02gjE4pRTTqGpqSkiItq3b19MLPbv30979+511q5dG4pFo9FwVq1aRfV63QkCudFoOLJQACDHccIAC4TCcRyn2Ww64+Pj1Gw2nZGRkVAUfN93gmBpNpuOKBCjo6MUlAd2G42GMzIyQoI4VIjIGRsbc6rVakRAPM+rjIyMOK7rOq7rhkKCtpj4vh8RiKCe67pOW8yoHfDOyMgIVatVx/M8x3EcZ2RkhHzfd9ojpXazHcEIhMJxHHJdl3zfp5GREVpcXAz6gDzPo2q1Sp7n0ejoKC0uLlKlUqHf/va3TqVSoVqthkBAJiYmqF6vh/M/zEwzMzM0Pj4OZg7ndALxcBwHk5OTGBkZocceewyw4pEa9vIEnUuRLJchpksQ8fJDnJ8QLzWq1SqpLjlc1yX50qMtBjQ2NhZeSlQqFWo2mzQyMoLgt9Fo0OjoaHgJ0g72SHmbF4J8AKjVapFtHVzXDS4RItv1eh1A6xKlXq+H+b7vc5C/sLCAIM913bBecClTq9V4fn4e1Wo1zBMvYZrNJsuXMsFljOoSRr58kec/xLkP+bIluKtVvGwR5zwALOugsaIBUDDJKQuGOMEZ3GmpEoyxsbHIfIU4oRnMVQQikVYsgnkIMV8UikBIZJEQBSIQlFqtFgqCKCSBWKi2VVhcXAwFQd4OBMJ1XQ7y6/V6REiC/EBExDLP87QCIopFICSBiMjiMTo6yo8//ng4iVqv11mcSB0fH2dZOHRzHvJ8h50sbWFZX560L0kKEYyFhQWamJgIRhk0Pj5OzEztuYiYYLQvMcLLFM/zyHVdajabTq1WC9Oe5wXX+rH5gfaw2/E8L5xLcF3XqVarREROo9FwqtUqBb+u6zqO45Dv++GlDVqXDpVKpRK5PKlWq05weRTkVSqVsB0AzsjICLXzwl8ADhHR4uJi0CYBoGCep315Qu2gC+cigr4CgGazCcdxqFqtIignIjQaDbTrAQCq1Spc18X8/DzVajUsLi6iXq+H6fblE0ZHR+G6LlzXpYWFBYyPj2N8fBwjIyN47LHHiJmxZs0aPProo8F8Cebn52n16tXYt28f1q1bh9nZWaxdu5Z27dqF3bt3Y+vWrX3z07Jh2T4aL66OBE+B7tmzJzI8Dy5J0owwgpFFsK/pciQYPahGF2NjY2F5pVIJ/zWbTXIcJ9z2PC+cgAzyx8bGKBCFQBjEeYi2AFRc13WYudKeYA1/q9VqhYhcInKbzabbbDbdYDsoZ+ZKsA8zVwKbvu+HbbiuG4pSMCcScB0bG4vkVyoVGh0dhXhswb+gjxqNBlUqlUCAIiOz9pxR2MdB/wfp4NIw+NssLCzQ3NwcHTx4kGZnZ+mwww7DwYMHKek5nOCO3o0bN2LXrl20efNmCh4TWG5YtqIRYNeuXRTcd7FhwwaIowyg9QBYko1gDkO+JAFagiHeXLW4uEjyEqd4b4QoJEDnksRxnPBSpNlsRi5DgknBoF5wqeE4DgX/giANRgVikFcqFcdxHIeZK67rVsbGxiL/XNetuK5baU/COu1VnDBNrSWasI3gn8gBiF4+BWnHcSKXWc1mM7w0A1oCIS4Py/ecBP9E4RBvcpNvmxdvnw+ewwnuwg0e4gvuswFa81niA4O9fr3AMGDZi0YS5CdGAwQOlwYrVqww3qad4z4JAAjnLYDoJGbS3ERQp9lsUrVahed5wUoFxG0xv9lsUvsSKtYe0LpUkCHWSZpkVUEUCyDeT7ob0bJAfqBPRNrXBSw3WNFA5+UxQOtWY/ExbfmpywDiU53BQ1u6h7eCSbqDBw+iVquxfAu2eAdlcLNUgGCiUJw8DFYgfN8PJxKDicjFxcVwUtL3/UjdxcVFMDP7vs/NZtN3HMdnZnYcx/c8z/c8z282mx4zN5vNpiemicjzPM/3fT/cp9lsBpvcaDQgt6VKBxOkYl0ACI4tOGaxL4Jfue+CydBgW7wpLA3Em8AAIJgMvf/++wF0VlLS2lsuWLaiwcy8adMmXr9+ffjyF9XLYURMTk5y8NDUihUreGJigsfHxzkQidHRURafoxCXA8XbpcWVgMDpa7Uae57H4oqB53ksriz4vh8RDt/32XEc3/d99jyPHcfxR0dH/UAU2vVDgajVap4oEJ7n+Y1Gw2s0Gh4AL0g3Gg3P9/2m7/tNMU+sI9oIBCT4XVhYYMdx/IWFBfZ9n0dHR/12uywLWXC8wa94zEDr7lLdKopqVQWIiodu+VV8RF9MA4i8+yNh6XVZYlm/7i9YNtu8eTN27dqF9evX0/T0NK9btw7T09NYvXo19u/fTzMzMzw5OYnp6Wlat24dz8zMYHx8nBYWFjh47mNubg4jIyPUXuLDwsICarUatYUDANBoNMLfZrOJZrMJILxUCLcdx+H25YDMlx3HofYdphgbG+NGo0Ft8aD5+XlqB0xsuVVMB5cvi4uLYZqZY/dtiJDvzRCXW+fm5uC6Lge/juOEo4B6vQ5xFNJoNNhxHFQqFW40Gmg0GizuS0TseV4oBMzMnueh2Wxys9mMCEaz2eRGowHHcSK3nacRjGCUIT7wlrTk2h6Rsug7Xbjf0GJZiwa31/KShAMA9u/fj8nJSRw8eDB84Kq9ksLz8/MYHx+PPNRVr9cxOjrKwUSc4zjcnqQLRaPRaKBWq7HjOCQEMLfT7HleOFFYq9V4cXGRPM/j4B6NdnCS4zjkeR6L92wEk4qO44R5AOC6rigWFIgB0Jl3EPNEBPdaiF0obDMzo9FooFqtcnt5lJvNJlzX5ZGRkcgNXsElTdsmExEqlQovLi4G92+EotO+LEGz2WTHcbgtqhBFIxCLRqMhigWIKHaPRqVS4fn5eTiOk/oejampKd69e7d9rB725q4QurtCAYQrKqq7QoH4E6xpb/QS06qbvQBE8lQ3fAGdB9KClRagcxPX6OgogM6DauJIQ5ycDEZDYt0A4sNowXxDm0ds1BHUDwRCvIFLvgsUQOTSQrwEEct0d4K2ecdGFoFIiGIxMTHBCwsLscfpVWLR/tvHLkmWu1gEWNYjDRHtUUdwuULi27yDUQcAbosHAHClUqH2Eh3PzMzQ/Pw8VqxYwUQUPP7ORET1ep2CS4uFhQVaXFzkQECCJcn2HZB04MABmpiYYN/3ETybsbCwgPaDaoE4hDdGVSoVYuZwKdL3/eAXlUqF5ufnw9vI28dJ9XodIyMjcF03FIggyFWQL5MAxCYtg2Cq1+uR27+DSczFxUWMjIzEbhVnZg5s1Go1bs+HRJ5+PXDgQLAvO46DYLTRPn4+ePAgRkdHmYjC0UW9Xsfq1avDkcXCwkJMLADwzMyM8tbx6enpUCyuvfbaZX0HqAw70lBAfodGmpEHgNgNYIB69CH+yiMQoPPeDHEUAkRHHUD8sXixTH4cPli+TFrelesFE7Xyqo4MsZ7qMXnVI/KBKIhpoPW+jaIfjxeEAmlHFsv9dnEdrGgkQLxsSfOmrrwv4FGJCKAWkmBbJyaA+cU7wf0Ned/aFUB8wY4qH4i/kEclDkBHEOTtNs+YSMhv9NK9iEclFKoH0ux7NNLDikZKBLcMZxEQQP9yHgDGF/SI6WAy1SQmYp6YL77iT35Rj5yXBSrBEMVC9eo/UQhU4iC+qat9DOJcSjiSANQioZrUBOwr/4qGFY2c0L3ZC0gWESA6EinihcKqlwmrXiSsuzM1yA9eIyhjdnY2aFfrMHKZfKOV/C5QoDNiEHhExEF+J6j4gmHVSAKIi8Qdd9yBww8/PHLpAdhVkLywolEQkkQEQOS5lryfLhAFBYh+ukD12QLxxcTBtu4YJicnjccYBLwKYuDLQqDKF986Ln43RScObX5KgQA6r+0D7GcMeg0rGj2COJkKmIUESP+RJPHLaKoPJInPUsgCI0L+TkpeiMEvQv6Akvxtk6AOEP1SWzcfTRK/wGYvN3oHKxp9hDgvAuT7HKPqISrxqUwg+hU20+cXu/3Kmnz7tcAn9rlG8VONqud5AlEQvwWb9vOMdgTRX1jRKAlkQQH0ogJEP/osf/BZfLQ/QL+e2FR9IFp8ABCIfhDa9DFo+yHocsKKxhAhEBbxsgfoiAvQeaFQmvc+7NmzhzZs2JCLizi5mATxi/BA9KvwwWUEYAVhWGBFYxlA94Yp8W8vipAJ4tOduhdX2eBf2vj/AdH4FD9SXHAPAAAAAElFTkSuQmCC;" parent="1" vertex="1">
          <mxGeometry x="-1092.27" y="-543" width="21.45" height="26" as="geometry" />
        </mxCell>
        <mxCell id="9ioN4O_SSfm939H9G9DM-26" value="" style="shape=image;verticalLabelPosition=bottom;labelBackgroundColor=default;verticalAlign=top;aspect=fixed;imageAspect=0;image=data:image/svg+xml,PHN2ZyBwcmVzZXJ2ZUFzcGVjdFJhdGlvPSJ4TWlkWU1pZCIgeG1sbnM6eGxpbms9Imh0dHA6Ly93d3cudzMub3JnLzE5OTkveGxpbmsiIHhtbG5zPSJodHRwOi8vd3d3LnczLm9yZy8yMDAwL3N2ZyIgdmVyc2lvbj0iMS4xIiB2aWV3Qm94PSIwIDAgMjU2LjAwMDMwNTE3NTc4MTI1IDI5MC45MDk0MjM4MjgxMjUiIGhlaWdodD0iNzk5Ljc1MDk5MzM0MTkyNDQiIHdpZHRoPSI3MDMuNzgwOTA3Njk5NzQyMiI+JiN4YTsgICAgPGc+JiN4YTsgICAgICAgIDxwb2x5Z29uIHBvaW50cz0iMTc2LjQ4NTA1NyAxODguOTk0MTYyIDI1Ni4wMDAzMDIgMTQzLjEyNzQ0MiAyNTYuMDAwMzAyIDUxLjI0ODU0NTMgMTc2LjQ4NTA1NyA5Ny4yMTIyMzU4IiBmaWxsPSIjNDA0MEIyIj4mI3hhOyYjeGE7PC9wb2x5Z29uPiYjeGE7ICAgICAgICA8cGF0aCBmaWxsPSIjNUM0RUU1IiBkPSJNODguMjQyNTI4Myw1MS4yNDg1NDUzIEwxNjcuNzU3Nzc0LDk3LjIxMjIzNTggTDE2Ny43NTc3NzQsMTg4Ljk5NDE2MiBMODguMjQyNTI4MywxNDMuMDc4OTU3IE0wLDkxLjgzMDQxMTMgTDc5LjUxNTI0NTMsMTM3Ljc0NTYxNyBMNzkuNTE1MjQ1Myw0NS45MTUyMDU3IEwwLDAgTTg4LjI0MjUyODMsMjQ0Ljk5NDIyOCBMMTY3Ljc1Nzc3NCwyOTAuOTA5NDM0IEwxNjcuNzU3Nzc0LDE5OS4wNzkwMjMgTDg4LjI0MjUyODMsMTUzLjE2MzgxNyI+JiN4YTsmI3hhOzwvcGF0aD4mI3hhOyAgICA8L2c+JiN4YTs8L3N2Zz4=;" parent="1" vertex="1">
          <mxGeometry x="-687.56" y="-543" width="21.12" height="24" as="geometry" />
        </mxCell>
        <mxCell id="9ioN4O_SSfm939H9G9DM-27" value="approves" style="edgeStyle=orthogonalEdgeStyle;rounded=0;orthogonalLoop=1;jettySize=auto;html=1;fillColor=#dae8fc;strokeColor=#666666;fontColor=#666666;" parent="1" source="9ioN4O_SSfm939H9G9DM-22" target="9ioN4O_SSfm939H9G9DM-11" edge="1">
          <mxGeometry relative="1" as="geometry">
            <mxPoint x="-872" y="-330" as="sourcePoint" />
            <mxPoint x="-872" y="-586" as="targetPoint" />
            <Array as="points">
              <mxPoint x="-988" y="-298" />
              <mxPoint x="-988" y="-590" />
            </Array>
          </mxGeometry>
        </mxCell>
        <mxCell id="9ioN4O_SSfm939H9G9DM-28" style="edgeStyle=orthogonalEdgeStyle;rounded=0;orthogonalLoop=1;jettySize=auto;html=1;strokeColor=#666666;fillColor=#dae8fc;fontColor=#666666;" parent="1" source="9ioN4O_SSfm939H9G9DM-29" target="9ioN4O_SSfm939H9G9DM-22" edge="1">
          <mxGeometry relative="1" as="geometry" />
        </mxCell>
        <mxCell id="9ioN4O_SSfm939H9G9DM-29" value="&lt;b&gt;SNS Topic&lt;/b&gt;&lt;br&gt;org-mgmt-approval-notification" style="sketch=0;outlineConnect=0;fontColor=#232F3E;gradientColor=none;fillColor=#E7157B;strokeColor=none;dashed=0;verticalLabelPosition=bottom;verticalAlign=top;align=center;html=1;fontSize=12;fontStyle=0;aspect=fixed;pointerEvents=1;shape=mxgraph.aws4.topic;" parent="1" vertex="1">
          <mxGeometry x="-889.38" y="-456" width="34.93" height="30" as="geometry" />
        </mxCell>
        <mxCell id="9ioN4O_SSfm939H9G9DM-32" value="2" style="ellipse;whiteSpace=wrap;html=1;fillColor=#000000;fontColor=#ffffff;fontStyle=1" parent="1" vertex="1">
          <mxGeometry x="-1200" y="-763" width="16" height="16" as="geometry" />
        </mxCell>
        <mxCell id="9ioN4O_SSfm939H9G9DM-34" value="3" style="ellipse;whiteSpace=wrap;html=1;fillColor=#000000;fontColor=#ffffff;fontStyle=1" parent="1" vertex="1">
          <mxGeometry x="-1092.27" y="-646" width="16" height="16" as="geometry" />
        </mxCell>
        <mxCell id="9ioN4O_SSfm939H9G9DM-35" value="5" style="ellipse;whiteSpace=wrap;html=1;fillColor=#000000;fontColor=#ffffff;fontStyle=1" parent="1" vertex="1">
          <mxGeometry x="-884" y="-640.5" width="16" height="16" as="geometry" />
        </mxCell>
        <mxCell id="9ioN4O_SSfm939H9G9DM-36" value="4" style="ellipse;whiteSpace=wrap;html=1;fillColor=#000000;fontColor=#ffffff;fontStyle=1" parent="1" vertex="1">
          <mxGeometry x="-1064" y="-818" width="16" height="16" as="geometry" />
        </mxCell>
        <mxCell id="9ioN4O_SSfm939H9G9DM-37" value="10" style="ellipse;whiteSpace=wrap;html=1;fillColor=#000000;fontColor=#ffffff;fontStyle=1" parent="1" vertex="1">
          <mxGeometry x="-638" y="-806" width="16" height="16" as="geometry" />
        </mxCell>
        <mxCell id="9ioN4O_SSfm939H9G9DM-38" value="7" style="ellipse;whiteSpace=wrap;html=1;fillColor=#000000;fontColor=#ffffff;fontStyle=1" parent="1" vertex="1">
          <mxGeometry x="-663" y="-646" width="16" height="16" as="geometry" />
        </mxCell>
        <mxCell id="9ioN4O_SSfm939H9G9DM-39" value="6" style="ellipse;whiteSpace=wrap;html=1;fillColor=#000000;fontColor=#ffffff;fontStyle=1" parent="1" vertex="1">
          <mxGeometry x="-842" y="-449" width="16" height="16" as="geometry" />
        </mxCell>
        <mxCell id="9ioN4O_SSfm939H9G9DM-41" value="9" style="ellipse;whiteSpace=wrap;html=1;fillColor=#000000;fontColor=#ffffff;fontStyle=1" parent="1" vertex="1">
          <mxGeometry x="-1362" y="-838" width="16" height="16" as="geometry" />
        </mxCell>
        <mxCell id="9ioN4O_SSfm939H9G9DM-42" value="&lt;b&gt;S3 Bucket&lt;/b&gt;&lt;br&gt;CodePipeline artifacts" style="sketch=0;outlineConnect=0;fontColor=#232F3E;gradientColor=none;fillColor=#7AA116;strokeColor=none;dashed=0;verticalLabelPosition=bottom;verticalAlign=top;align=center;html=1;fontSize=12;fontStyle=0;aspect=fixed;pointerEvents=1;shape=mxgraph.aws4.bucket;" parent="1" vertex="1">
          <mxGeometry x="-1440" y="-477" width="38.47" height="40" as="geometry" />
        </mxCell>
        <mxCell id="9ioN4O_SSfm939H9G9DM-43" value="&lt;b&gt;S3 Bucket&lt;/b&gt;&lt;br&gt;Terraform State" style="sketch=0;outlineConnect=0;fontColor=#232F3E;gradientColor=none;fillColor=#7AA116;strokeColor=none;dashed=0;verticalLabelPosition=bottom;verticalAlign=top;align=center;html=1;fontSize=12;fontStyle=0;aspect=fixed;pointerEvents=1;shape=mxgraph.aws4.bucket;" parent="1" vertex="1">
          <mxGeometry x="-1311" y="-476" width="38.47" height="40" as="geometry" />
        </mxCell>
        <mxCell id="9ioN4O_SSfm939H9G9DM-44" value="&lt;div align=&quot;center&quot;&gt;&lt;b&gt;Bedrock&lt;/b&gt;&lt;br&gt;Change summary&lt;/div&gt;&lt;div align=&quot;center&quot;&gt;&lt;br&gt;&lt;/div&gt;" style="text;whiteSpace=wrap;html=1;align=center;" parent="1" vertex="1">
          <mxGeometry x="-1160.0018518518523" y="-787.5048148148148" width="123" height="65" as="geometry" />
        </mxCell>
        <mxCell id="9ioN4O_SSfm939H9G9DM-45" value="8" style="ellipse;whiteSpace=wrap;html=1;fillColor=#000000;fontColor=#ffffff;fontStyle=1" parent="1" vertex="1">
          <mxGeometry x="-1362" y="-457" width="16" height="16" as="geometry" />
        </mxCell>
        <mxCell id="9ioN4O_SSfm939H9G9DM-46" value="1" style="ellipse;whiteSpace=wrap;html=1;fillColor=#000000;fontColor=#ffffff;fontStyle=1" parent="1" vertex="1">
          <mxGeometry x="-1650" y="-480" width="16" height="16" as="geometry" />
        </mxCell>
        <mxCell id="9ioN4O_SSfm939H9G9DM-49" value="start&lt;br&gt;pipeline execution" style="edgeStyle=orthogonalEdgeStyle;rounded=0;orthogonalLoop=1;jettySize=auto;html=1;fillColor=#dae8fc;strokeColor=#666666;fontColor=#666666;" parent="1" source="9ioN4O_SSfm939H9G9DM-47" edge="1">
          <mxGeometry relative="1" as="geometry">
            <mxPoint x="-1270" y="-720" as="targetPoint" />
            <Array as="points">
              <mxPoint x="-1577" y="-720" />
            </Array>
          </mxGeometry>
        </mxCell>
        <mxCell id="9ioN4O_SSfm939H9G9DM-47" value="Remnote Git&lt;br&gt; Repository" style="sketch=0;outlineConnect=0;fontColor=#232F3E;gradientColor=none;fillColor=#232F3D;strokeColor=none;dashed=0;verticalLabelPosition=bottom;verticalAlign=top;align=center;html=1;fontSize=12;fontStyle=1;aspect=fixed;pointerEvents=1;shape=mxgraph.aws4.git_repository;" parent="1" vertex="1">
          <mxGeometry x="-1604.61" y="-747.25" width="34.23" height="44.5" as="geometry" />
        </mxCell>
      </root>
    </mxGraphModel>
  </diagram>
</mxfile>
